<?xml version="1.0" encoding="utf-8"?>
<!-- Generator: Adobe Illustrator 16.0.0, SVG Export Plug-In . SVG Version: 6.00 Build 0)  -->
<!DOCTYPE svg PUBLIC "-//W3C//DTD SVG 1.1//EN" "http://www.w3.org/Graphics/SVG/1.1/DTD/svg11.dtd">
<svg version="1.1" id="Layer_1" xmlns="http://www.w3.org/2000/svg" xmlns:xlink="http://www.w3.org/1999/xlink" x="0px" y="0px"
	 width="2304px" height="1295.999px" viewBox="0 0 2304 1295.999" enable-background="new 0 0 2304 1295.999" xml:space="preserve">
<image overflow="visible" width="1920" height="1080" xlink:href="../../../data for portal/Screenshot.png"  transform="matrix(1 0 0 1 -2049.9995 488.999)">
</image>
<rect opacity="0.2" width="2304" height="1295.999"/>
<g>
	<g>
		<path fill="#FFFFFF" d="M1752.071,480.427c2.699,0.526,4.902,3.207,4.897,5.957l-0.032,15.934
			c-0.005,2.75,1.519,3.349,3.386,1.329l41.659-45.036c1.867-2.02,1.805-5.262-0.14-7.206l-41.563-41.563
			c-1.944-1.944-3.535-1.285-3.535,1.465v25.512c0,2.75-2.198,4.519-4.885,3.931c0,0-141.402-30.946-143.359-64.431
			C1612.999,453.318,1752.071,480.427,1752.071,480.427z"/>
		<path fill="none" stroke="#E3784A" stroke-width="10" stroke-miterlimit="10" d="M1752.071,480.427
			c2.699,0.526,4.902,3.207,4.897,5.957l-0.032,15.934c-0.005,2.75,1.519,3.349,3.386,1.329l41.659-45.036
			c1.867-2.02,1.805-5.262-0.14-7.206l-41.563-41.563c-1.944-1.944-3.535-1.285-3.535,1.465v25.512c0,2.75-2.198,4.519-4.885,3.931
			c0,0-141.402-30.946-143.359-64.431C1612.999,453.318,1752.071,480.427,1752.071,480.427z"/>
	</g>
	<g>
		<path fill="#FFFFFF" d="M1842.565,366.317c0,5.5-4.5,10-10,10h-398.31c-5.5,0-10-4.5-10-10V174.485c0-5.5,4.5-10,10-10h398.31
			c5.5,0,10,4.5,10,10V366.317z"/>
		<path fill="none" stroke="#E3784A" stroke-width="10" stroke-miterlimit="10" d="M1842.565,366.317c0,5.5-4.5,10-10,10h-398.31
			c-5.5,0-10-4.5-10-10V174.485c0-5.5,4.5-10,10-10h398.31c5.5,0,10,4.5,10,10V366.317z"/>
	</g>
	<rect x="1433.756" y="178.136" fill="none" width="393.811" height="198.182"/>
	<text transform="matrix(1 0 0 1 1433.7559 190.916)"><tspan x="0" y="0" font-family="'Montserrat', sans-serif" font-weight="bold" font-size="18">This is the filter panel.</tspan><tspan x="0" y="43.2" font-family="'Montserrat', sans-serif" font-size="18">Here</tspan><tspan x="35.657" y="43.2" font-family="'Montserrat', sans-serif" font-size="18" letter-spacing="3"> </tspan><tspan x="42.771" y="43.2" font-family="'Montserrat', sans-serif" font-size="18">you</tspan><tspan x="71.048" y="43.2" font-family="'Montserrat', sans-serif" font-size="18" letter-spacing="3"> </tspan><tspan x="78.161" y="43.2" font-family="'Montserrat', sans-serif" font-size="18">can</tspan><tspan x="104.891" y="43.2" font-family="'Montserrat', sans-serif" font-size="18" letter-spacing="3"> </tspan><tspan x="112.005" y="43.2" font-family="'Montserrat', sans-serif" font-size="18">select</tspan><tspan x="155.438" y="43.2" font-family="'Montserrat', sans-serif" font-size="18" letter-spacing="3"> </tspan><tspan x="162.552" y="43.2" font-family="'Montserrat', sans-serif" font-size="18">the</tspan><tspan x="187.518" y="43.2" font-family="'Montserrat', sans-serif" font-size="18" letter-spacing="3"> </tspan><tspan x="194.631" y="43.2" font-family="'Montserrat', sans-serif" font-size="18">percentage</tspan><tspan x="280.561" y="43.2" font-family="'Montserrat', sans-serif" font-size="18" letter-spacing="3"> </tspan><tspan x="287.674" y="43.2" font-family="'Montserrat', sans-serif" font-size="18">population</tspan><tspan x="370.924" y="43.2" font-family="'Montserrat', sans-serif" font-size="18" letter-spacing="3"> </tspan><tspan x="378.037" y="43.2" font-family="'Montserrat', sans-serif" font-size="18">or </tspan><tspan x="0" y="64.8" font-family="'Montserrat', sans-serif" font-size="18">percentage</tspan><tspan x="85.93" y="64.8" font-family="'Montserrat', sans-serif" font-size="18"> </tspan><tspan x="90.128" y="64.8" font-family="'Montserrat', sans-serif" font-size="18">number</tspan><tspan x="150.193" y="64.8" font-family="'Montserrat', sans-serif" font-size="18"> </tspan><tspan x="154.392" y="64.8" font-family="'Montserrat', sans-serif" font-size="18">of</tspan><tspan x="169.529" y="64.8" font-family="'Montserrat', sans-serif" font-size="18"> </tspan><tspan x="173.729" y="64.8" font-family="'Montserrat', sans-serif" font-size="18">households</tspan><tspan x="261.064" y="64.8" font-family="'Montserrat', sans-serif" font-size="18"> </tspan><tspan x="265.263" y="64.8" font-family="'Montserrat', sans-serif" font-size="18">for</tspan><tspan x="286.286" y="64.8" font-family="'Montserrat', sans-serif" font-size="18"> </tspan><tspan x="290.484" y="64.8" font-family="'Montserrat', sans-serif" font-size="18">the</tspan><tspan x="315.45" y="64.8" font-family="'Montserrat', sans-serif" font-size="18"> </tspan><tspan x="319.648" y="64.8" font-family="'Montserrat', sans-serif" font-size="18">indicators </tspan><tspan x="0" y="86.4" font-family="'Montserrat', sans-serif" font-size="18">that</tspan><tspan x="30.582" y="86.4" font-family="'Montserrat', sans-serif" font-size="18"> </tspan><tspan x="34.587" y="86.4" font-family="'Montserrat', sans-serif" font-size="18">you</tspan><tspan x="62.864" y="86.4" font-family="'Montserrat', sans-serif" font-size="18"> </tspan><tspan x="66.87" y="86.4" font-family="'Montserrat', sans-serif" font-size="18">want</tspan><tspan x="104.742" y="86.4" font-family="'Montserrat', sans-serif" font-size="18"> </tspan><tspan x="108.747" y="86.4" font-family="'Montserrat', sans-serif" font-size="18">to</tspan><tspan x="124.587" y="86.4" font-family="'Montserrat', sans-serif" font-size="18"> </tspan><tspan x="128.592" y="86.4" font-family="'Montserrat', sans-serif" font-size="18">see</tspan><tspan x="153.755" y="86.4" font-family="'Montserrat', sans-serif" font-size="18">                                          </tspan><tspan x="321.973" y="86.4" fill="none" font-family="'Montserrat', sans-serif" font-size="18">                 </tspan><tspan x="390.061" y="86.4" fill="none" font-family="'Montserrat', sans-serif" font-size="18">.</tspan><tspan x="0" y="129.6" font-family="'Montserrat', sans-serif" font-size="18">The</tspan><tspan x="27.954" y="129.6" font-family="'Montserrat', sans-serif" font-size="18" letter-spacing="3"> </tspan><tspan x="34.885" y="129.6" font-family="'Montserrat', sans-serif" font-size="18">total</tspan><tspan x="69.606" y="129.6" font-family="'Montserrat', sans-serif" font-size="18" letter-spacing="3"> </tspan><tspan x="76.537" y="129.6" font-family="'Montserrat', sans-serif" font-size="18">population</tspan><tspan x="159.787" y="129.6" font-family="'Montserrat', sans-serif" font-size="18" letter-spacing="3"> </tspan><tspan x="166.719" y="129.6" font-family="'Montserrat', sans-serif" font-size="18">and</tspan><tspan x="195.537" y="129.6" font-family="'Montserrat', sans-serif" font-size="18" letter-spacing="3"> </tspan><tspan x="202.468" y="129.6" font-family="'Montserrat', sans-serif" font-size="18">number</tspan><tspan x="262.533" y="129.6" font-family="'Montserrat', sans-serif" font-size="18" letter-spacing="3"> </tspan><tspan x="269.464" y="129.6" font-family="'Montserrat', sans-serif" font-size="18">of</tspan><tspan x="284.602" y="129.6" font-family="'Montserrat', sans-serif" font-size="18" letter-spacing="3"> </tspan><tspan x="291.532" y="129.6" font-family="'Montserrat', sans-serif" font-size="18">household</tspan><tspan x="371.74" y="129.6" font-family="'Montserrat', sans-serif" font-size="18" letter-spacing="3"> </tspan><tspan x="378.672" y="129.6" font-family="'Montserrat', sans-serif" font-size="18">of </tspan><tspan x="0" y="151.2" font-family="'Montserrat', sans-serif" font-size="18">the</tspan><tspan x="24.966" y="151.2" font-family="'Montserrat', sans-serif" font-size="18"> </tspan><tspan x="28.117" y="151.2" font-family="'Montserrat', sans-serif" font-size="18">districts</tspan><tspan x="86.814" y="151.2" font-family="'Montserrat', sans-serif" font-size="18"> </tspan><tspan x="89.965" y="151.2" font-family="'Montserrat', sans-serif" font-size="18">within</tspan><tspan x="137.575" y="151.2" font-family="'Montserrat', sans-serif" font-size="18"> </tspan><tspan x="140.727" y="151.2" font-family="'Montserrat', sans-serif" font-size="18">your</tspan><tspan x="174.89" y="151.2" font-family="'Montserrat', sans-serif" font-size="18"> </tspan><tspan x="178.04" y="151.2" font-family="'Montserrat', sans-serif" font-size="18">selection</tspan><tspan x="245.558" y="151.2" font-family="'Montserrat', sans-serif" font-size="18"> </tspan><tspan x="248.709" y="151.2" font-family="'Montserrat', sans-serif" font-size="18">is</tspan><tspan x="260.049" y="151.2" font-family="'Montserrat', sans-serif" font-size="18"> </tspan><tspan x="263.199" y="151.2" font-family="'Montserrat', sans-serif" font-size="18">shown</tspan><tspan x="313.438" y="151.2" font-family="'Montserrat', sans-serif" font-size="18"> </tspan><tspan x="316.589" y="151.2" font-family="'Montserrat', sans-serif" font-size="18">on</tspan><tspan x="336.461" y="151.2" font-family="'Montserrat', sans-serif" font-size="18"> </tspan><tspan x="339.612" y="151.2" font-family="'Montserrat', sans-serif" font-size="18">the</tspan><tspan x="364.578" y="151.2" font-family="'Montserrat', sans-serif" font-size="18"> </tspan><tspan x="367.729" y="151.2" font-family="'Montserrat', sans-serif" font-size="18">top </tspan><tspan x="0" y="172.8" font-family="'Montserrat', sans-serif" font-size="18">of</tspan><tspan x="15.138" y="172.8" font-family="'Montserrat', sans-serif" font-size="18"> </tspan><tspan x="18.891" y="172.8" font-family="'Montserrat', sans-serif" font-size="18">the</tspan><tspan x="43.856" y="172.8" font-family="'Montserrat', sans-serif" font-size="18"> </tspan><tspan x="47.61" y="172.8" font-family="'Montserrat', sans-serif" font-size="18">panel</tspan><tspan x="89.784" y="172.8" font-family="'Montserrat', sans-serif" font-size="18">                                                                                </tspan><tspan x="390.056" y="172.8" fill="none" font-family="'Montserrat', sans-serif" font-size="18">.</tspan></text>
</g>
<g>
	<g>
		<path fill="#FFFFFF" d="M935,576.999c0,5.5-4.5,10-10,10H506.514c-5.5,0-10-4.5-10-10V468.485c0-5.5,4.5-10,10-10H925
			c5.5,0,10,4.5,10,10V576.999z"/>
		<path fill="none" stroke="#E3784A" stroke-width="10" stroke-miterlimit="10" d="M935,576.999c0,5.5-4.5,10-10,10H506.514
			c-5.5,0-10-4.5-10-10V468.485c0-5.5,4.5-10,10-10H925c5.5,0,10,4.5,10,10V576.999z"/>
	</g>
	<rect x="517.347" y="471.735" fill="none" width="378.87" height="115.264"/>
	<text transform="matrix(1 0 0 1 517.3472 484.5146)"><tspan x="0" y="0" font-family="'Montserrat', sans-serif" font-weight="bold" font-size="18">This is the statistical panel</tspan><tspan x="0" y="21.6" font-family="'Montserrat', sans-serif" font-size="18"> </tspan><tspan x="0" y="43.2" font-family="'Montserrat', sans-serif" font-size="18">It</tspan><tspan x="10.26" y="43.2" font-family="'Montserrat', sans-serif" font-size="18"> </tspan><tspan x="13.814" y="43.2" font-family="'Montserrat', sans-serif" font-size="18">shows</tspan><tspan x="61.19" y="43.2" font-family="'Montserrat', sans-serif" font-size="18"> </tspan><tspan x="64.745" y="43.2" font-family="'Montserrat', sans-serif" font-size="18">the</tspan><tspan x="89.711" y="43.2" font-family="'Montserrat', sans-serif" font-size="18"> </tspan><tspan x="93.266" y="43.2" font-family="'Montserrat', sans-serif" font-size="18">national</tspan><tspan x="154.897" y="43.2" font-family="'Montserrat', sans-serif" font-size="18"> </tspan><tspan x="158.452" y="43.2" font-family="'Montserrat', sans-serif" font-size="18">average</tspan><tspan x="218.444" y="43.2" font-family="'Montserrat', sans-serif" font-size="18"> </tspan><tspan x="221.999" y="43.2" font-family="'Montserrat', sans-serif" font-size="18">and</tspan><tspan x="250.817" y="43.2" font-family="'Montserrat', sans-serif" font-size="18"> </tspan><tspan x="254.372" y="43.2" font-family="'Montserrat', sans-serif" font-size="18">when</tspan><tspan x="296.618" y="43.2" font-family="'Montserrat', sans-serif" font-size="18"> </tspan><tspan x="300.173" y="43.2" font-family="'Montserrat', sans-serif" font-size="18">a</tspan><tspan x="308.849" y="43.2" font-family="'Montserrat', sans-serif" font-size="18"> </tspan><tspan x="312.403" y="43.2" font-family="'Montserrat', sans-serif" font-size="18">district</tspan><tspan x="363.974" y="43.2" font-family="'Montserrat', sans-serif" font-size="18"> </tspan><tspan x="367.528" y="43.2" font-family="'Montserrat', sans-serif" font-size="18">is </tspan><tspan x="0" y="64.8" font-family="'Montserrat', sans-serif" font-size="18">selected, its statistics are overlayed on the national</tspan><tspan x="0" y="86.4" font-family="'Montserrat', sans-serif" font-size="18">average</tspan><tspan x="59.992" y="86.4" font-family="'Montserrat', sans-serif" font-size="18" letter-spacing="311"> </tspan><tspan x="375.109" y="86.4" fill="none" font-family="'Montserrat', sans-serif" font-size="18">.</tspan></text>
	<g>
		<path fill="#FFFFFF" d="M524.57,354.375c-2.699-0.526-4.903-3.207-4.898-5.957l0.032-15.934c0.005-2.75-1.518-3.348-3.385-1.33
			l-41.66,45.037c-1.867,2.019-1.804,5.261,0.141,7.206l41.563,41.563c1.945,1.945,3.536,1.286,3.536-1.464v-25.512
			c0-2.75,2.198-4.519,4.884-3.931c0,0,141.403,30.947,143.36,64.431C663.642,381.485,524.57,354.375,524.57,354.375z"/>
		<path fill="none" stroke="#E3784A" stroke-width="10" stroke-miterlimit="10" d="M524.57,354.375
			c-2.699-0.526-4.903-3.207-4.898-5.957l0.032-15.934c0.005-2.75-1.518-3.348-3.385-1.33l-41.66,45.037
			c-1.867,2.019-1.804,5.261,0.141,7.206l41.563,41.563c1.945,1.945,3.536,1.286,3.536-1.464v-25.512
			c0-2.75,2.198-4.519,4.884-3.931c0,0,141.403,30.947,143.36,64.431C663.642,381.485,524.57,354.375,524.57,354.375z"/>
	</g>
</g>
<g>
	<g>
		<path fill="#FFFFFF" d="M1108.479,786.725c0.673-2.666,3.439-5.238,6.147-5.716l21.666-3.82c2.708-0.478,3.081-2.159,0.828-3.736
			l-47.414-33.199c-2.252-1.577-5.386-1.025-6.964,1.228l-33.2,47.414c-1.578,2.253-0.652,3.705,2.056,3.228l21.667-3.819
			c2.708-0.478,4.464,1.334,3.901,4.026c0,0-16.6,79.446-32.357,82.225C1088.249,866.894,1108.479,786.725,1108.479,786.725z"/>
		<path fill="none" stroke="#E3784A" stroke-width="10" stroke-miterlimit="10" d="M1108.479,786.725
			c0.673-2.666,3.439-5.238,6.147-5.716l21.666-3.82c2.708-0.478,3.081-2.159,0.828-3.736l-47.414-33.199
			c-2.252-1.577-5.386-1.025-6.964,1.228l-33.2,47.414c-1.578,2.253-0.652,3.705,2.056,3.228l21.667-3.819
			c2.708-0.478,4.464,1.334,3.901,4.026c0,0-16.6,79.446-32.357,82.225C1088.249,866.894,1108.479,786.725,1108.479,786.725z"/>
	</g>
	<g>
		<path fill="#FFFFFF" d="M1197.589,1001.571c0,5.5-4.5,10-10,10H784.256c-5.5,0-10-4.5-10-10V887.476c0-5.5,4.5-10,10-10h403.333
			c5.5,0,10,4.5,10,10V1001.571z"/>
		<path fill="none" stroke="#E3784A" stroke-width="10" stroke-miterlimit="10" d="M1197.589,1001.571c0,5.5-4.5,10-10,10H784.256
			c-5.5,0-10-4.5-10-10V887.476c0-5.5,4.5-10,10-10h403.333c5.5,0,10,4.5,10,10V1001.571z"/>
	</g>
	<rect x="792.756" y="897.976" fill="none" width="374.834" height="113.596"/>
	<text transform="matrix(1 0 0 1 792.7559 910.7549)"><tspan x="0" y="0" font-family="'Montserrat', sans-serif" font-weight="bold" font-size="18">This is the map</tspan><tspan x="0" y="21.601" font-family="'Montserrat', sans-serif" font-size="18"> </tspan><tspan x="0" y="43.201" font-family="'Montserrat', sans-serif" font-size="18">Click</tspan><tspan x="35.404" y="43.201" font-family="'Montserrat', sans-serif" font-size="18" letter-spacing="2"> </tspan><tspan x="42.096" y="43.201" font-family="'Montserrat', sans-serif" font-size="18">on</tspan><tspan x="61.968" y="43.201" font-family="'Montserrat', sans-serif" font-size="18" letter-spacing="2"> </tspan><tspan x="68.66" y="43.201" font-family="'Montserrat', sans-serif" font-size="18">a</tspan><tspan x="77.336" y="43.201" font-family="'Montserrat', sans-serif" font-size="18" letter-spacing="2"> </tspan><tspan x="84.027" y="43.201" font-family="'Montserrat', sans-serif" font-size="18">district</tspan><tspan x="135.597" y="43.201" font-family="'Montserrat', sans-serif" font-size="18" letter-spacing="2"> </tspan><tspan x="142.288" y="43.201" font-family="'Montserrat', sans-serif" font-size="18">to</tspan><tspan x="158.128" y="43.201" font-family="'Montserrat', sans-serif" font-size="18" letter-spacing="2"> </tspan><tspan x="164.819" y="43.201" font-family="'Montserrat', sans-serif" font-size="18">see</tspan><tspan x="189.982" y="43.201" font-family="'Montserrat', sans-serif" font-size="18" letter-spacing="2"> </tspan><tspan x="196.675" y="43.201" font-family="'Montserrat', sans-serif" font-size="18">that</tspan><tspan x="227.257" y="43.201" font-family="'Montserrat', sans-serif" font-size="18" letter-spacing="2"> </tspan><tspan x="233.948" y="43.201" font-family="'Montserrat', sans-serif" font-size="18">particular</tspan><tspan x="305.713" y="43.201" font-family="'Montserrat', sans-serif" font-size="18" letter-spacing="2"> </tspan><tspan x="312.404" y="43.201" font-family="'Montserrat', sans-serif" font-size="18">district’s </tspan><tspan x="0" y="64.801" font-family="'Montserrat', sans-serif" font-size="18">statistics</tspan><tspan x="64.421" y="64.801" font-family="'Montserrat', sans-serif" font-size="18"> </tspan><tspan x="68.184" y="64.801" font-family="'Montserrat', sans-serif" font-size="18">overlayed</tspan><tspan x="142.198" y="64.801" font-family="'Montserrat', sans-serif" font-size="18"> </tspan><tspan x="145.961" y="64.801" font-family="'Montserrat', sans-serif" font-size="18">on</tspan><tspan x="165.833" y="64.801" font-family="'Montserrat', sans-serif" font-size="18"> </tspan><tspan x="169.596" y="64.801" font-family="'Montserrat', sans-serif" font-size="18">the</tspan><tspan x="194.562" y="64.801" font-family="'Montserrat', sans-serif" font-size="18"> </tspan><tspan x="198.324" y="64.801" font-family="'Montserrat', sans-serif" font-size="18">national</tspan><tspan x="259.956" y="64.801" font-family="'Montserrat', sans-serif" font-size="18"> </tspan><tspan x="263.719" y="64.801" font-family="'Montserrat', sans-serif" font-size="18">statistics</tspan><tspan x="328.14" y="64.801" font-family="'Montserrat', sans-serif" font-size="18"> </tspan><tspan x="331.902" y="64.801" font-family="'Montserrat', sans-serif" font-size="18">in</tspan><tspan x="346.104" y="64.801" font-family="'Montserrat', sans-serif" font-size="18"> </tspan><tspan x="349.866" y="64.801" font-family="'Montserrat', sans-serif" font-size="18">the </tspan><tspan x="0" y="86.4" font-family="'Montserrat', sans-serif" font-size="18">left</tspan><tspan x="24.479" y="86.4" font-family="'Montserrat', sans-serif" font-size="18"> </tspan><tspan x="27.555" y="86.4" font-family="'Montserrat', sans-serif" font-size="18">panel</tspan><tspan x="69.729" y="86.4" font-family="'Montserrat', sans-serif" font-size="18">                                                                                                  </tspan><tspan x="371.08" y="86.4" fill="none" font-family="'Montserrat', sans-serif" font-size="18">.</tspan></text>
</g>
</svg>
