<?xml version="1.0" encoding="utf-8"?>
<!-- Generator: Adobe Illustrator 16.0.0, SVG Export Plug-In . SVG Version: 6.00 Build 0)  -->
<!DOCTYPE svg PUBLIC "-//W3C//DTD SVG 1.1//EN" "http://www.w3.org/Graphics/SVG/1.1/DTD/svg11.dtd">
<svg version="1.1" id="Layer_1" xmlns="http://www.w3.org/2000/svg" xmlns:xlink="http://www.w3.org/1999/xlink" x="0px" y="0px"
	 width="420.066px" height="108.363px" viewBox="55.601 26.833 420.066 108.363"
	 enable-background="new 55.601 26.833 420.066 108.363" xml:space="preserve">
<g>
	
		<radialGradient id="SVGID_1_" cx="-82.5356" cy="-4352.7075" r="38.4694" gradientTransform="matrix(1 0 0 -0.1566 177.1201 -553.6111)" gradientUnits="userSpaceOnUse">
		<stop  offset="0" style="stop-color:#C6C4C3"/>
		<stop  offset="0.3355" style="stop-color:#C9C7C6;stop-opacity:0.6645"/>
		<stop  offset="0.5596" style="stop-color:#D1CFCF;stop-opacity:0.4404"/>
		<stop  offset="0.7513" style="stop-color:#DFDEDE;stop-opacity:0.2487"/>
		<stop  offset="0.9236" style="stop-color:#F4F3F3;stop-opacity:0.0764"/>
		<stop  offset="1" style="stop-color:#FFFFFF;stop-opacity:0"/>
	</radialGradient>
	<ellipse fill="url(#SVGID_1_)" cx="94.584" cy="128.023" rx="38.984" ry="7.174"/>
	
		<radialGradient id="SVGID_2_" cx="-82.6255" cy="-411.5161" r="43.2106" gradientTransform="matrix(1 0 0 -1 177.1201 -331.4766)" gradientUnits="userSpaceOnUse">
		<stop  offset="0" style="stop-color:#F5B12D"/>
		<stop  offset="1" style="stop-color:#F27125"/>
	</radialGradient>
	<path fill="url(#SVGID_2_)" d="M129.659,68.711L129.659,68.711L129.659,68.711c0.061-0.645-28.874-0.042-28.795-0.449
		c0.206-1.127,0.649-1.902,1.244-2.449c1.061-0.686,2.306-0.897,3.374-0.996c0.748-0.115,2.943,0.273,3.878,0.523
		c0.647,0.176,1.445,0.331,2.746,0.166c1.698-0.224,3.088-1.634,3.492-3.412c0.554-2.422-0.967-4.826-3.385-5.376
		c-1.235-0.278-2.418,0.06-3.45,0.624c-1.221,0.666-3.491,3.214-7.017,3.912c-0.64,0.082-1.071-0.033-1.177-0.463
		c-0.49-1.939,3.055-6.559,3.55-7.101c0.583-0.634,1.189-1.309,1.507-2.548c0.616-2.404-0.831-4.853-3.237-5.467
		c-2.403-0.615-4.848,0.832-5.464,3.237c-0.318,1.226-0.066,2.064,0.032,2.86c0.1,0.744-0.071,3.051-0.229,3.759
		c-0.645,2.95-1.676,6.167-4.235,6.222c-1.698,0.033-3.408-3.081-3.987-4.21c-0.855-2.364,0.427-4.104-1.737-6.288
		c-1.745-1.762-4.963-0.707-6.522,1.56c-1.215,1.773-1.112,4.429,0.454,6.466c0.433,0.566,3.039,2.751,3.812,3.326
		c2.383,1.768,4.927,3.277,4.668,4.521c-0.557,2.655-3.488,2.617-6.414,2.586c-0.135-0.023-5.695-0.864-7.319,0.712
		c-2.073,2.021-1.456,5.37,0.544,6.837c2.905,2.136,5.907-0.608,6.467-0.927c2.615-2.229,6.581-2.366,7.499-2.377
		c8.145-0.104,18.691,0.672,19.254,2.453c1.59,5.064-0.551,9.457-7.116,12.84c-0.487,0.205-0.986,0.394-1.512,0.562
		c-1.928,0.479-3.905,0.737-5.894,0.756c-0.018,0-0.039,0-0.062,0c-0.318,0.002-0.642-0.002-0.964-0.012
		c-0.068-0.005-0.145-0.007-0.213-0.007c-0.269-0.012-0.542-0.026-0.81-0.045c-0.121-0.008-0.239-0.021-0.358-0.026
		c-0.224-0.021-0.446-0.043-0.666-0.066c-0.163-0.021-0.331-0.039-0.495-0.063c-0.174-0.021-0.351-0.048-0.531-0.078
		c-0.204-0.029-0.404-0.063-0.613-0.103c-0.136-0.021-0.269-0.049-0.408-0.076c-0.242-0.041-0.483-0.094-0.72-0.149
		c-0.1-0.021-0.2-0.047-0.301-0.068c-0.271-0.063-0.542-0.139-0.81-0.209c-0.073-0.021-0.141-0.033-0.209-0.061
		c-0.296-0.082-0.591-0.177-0.887-0.271c-0.042-0.015-0.082-0.026-0.127-0.041c-0.319-0.103-0.632-0.215-0.946-0.332
		c-0.022-0.006-0.042-0.019-0.062-0.022c-0.333-0.129-0.664-0.261-0.991-0.396c0,0-0.006-0.004-0.009-0.004
		c-0.092-0.025-0.224-0.09-0.383-0.162c-1.36-0.611-2.69-1.352-3.964-2.223c-1.268-0.881-2.43-1.863-3.489-2.922
		c-0.127-0.115-0.221-0.219-0.282-0.296c-0.003-0.006-0.003-0.006-0.007-0.012c-0.248-0.256-0.487-0.517-0.72-0.78
		c-0.017-0.019-0.035-0.036-0.047-0.052c-0.223-0.252-0.443-0.508-0.648-0.77c-0.03-0.029-0.059-0.066-0.086-0.102
		c-0.191-0.243-0.381-0.486-0.566-0.736c-0.045-0.052-0.086-0.111-0.127-0.168c-0.162-0.229-0.327-0.455-0.486-0.688
		c-0.056-0.086-0.115-0.168-0.171-0.254c-0.132-0.209-0.268-0.412-0.398-0.621c-0.074-0.114-0.147-0.232-0.215-0.354
		c-0.109-0.179-0.213-0.36-0.315-0.54c-0.089-0.154-0.175-0.311-0.256-0.471c-0.083-0.146-0.162-0.291-0.237-0.437
		c-0.1-0.201-0.197-0.404-0.295-0.604c-0.052-0.109-0.103-0.215-0.155-0.324c-0.113-0.245-0.225-0.494-0.331-0.741
		c-0.026-0.065-0.058-0.133-0.08-0.196c-0.125-0.299-0.241-0.6-0.354-0.898c-0.009-0.018-0.015-0.036-0.021-0.057
		c-2.761-7.481-1.969-16.15,2.907-23.212c6.582-9.536,18.522-13.167,28.985-9.637c2.14,0.745,4.228,1.785,6.19,3.135
		c1.962,1.36,3.675,2.943,5.131,4.684c1.742,2.121,3.1,4.484,4.063,6.987h10.365c-2.088-7.771-6.829-14.873-13.974-19.804
		c-15.943-11.002-37.773-7.033-48.834,8.851c-0.384,0.567-0.746,1.116-1.083,1.654c-0.894,1.452-1.678,2.951-2.339,4.482
		c-5.694,13.142-2.391,25.269,3.409,33.768c4.951,8.418,13.646,21.271,28.791,44.976h0.263
		c16.889-26.439,25.759-39.373,30.359-47.724l0,0c1.735-2.844,2.905-5.715,3.645-8.525c0-0.003,0.004-0.012,0.007-0.016
		c0.005-0.021,0.009-0.045,0.014-0.069c0.295-1.117,0.516-2.226,0.684-3.316c-0.008-0.003-0.011-0.004-0.014-0.008
		C129.532,69.804,129.6,69.255,129.659,68.711z"/>
	
		<radialGradient id="SVGID_3_" cx="-82.2676" cy="-510.2026" r="40.1369" gradientTransform="matrix(1 0 0 -0.9288 177.1201 -350.5655)" gradientUnits="userSpaceOnUse">
		<stop  offset="0" style="stop-color:#FFFFFF;stop-opacity:0.8"/>
		<stop  offset="1" style="stop-color:#FFFFFF;stop-opacity:0"/>
	</radialGradient>
	<path fill="url(#SVGID_3_)" d="M94.621,125.603c-5.326-8.309-9.844-15.268-13.551-20.977c-6-9.234-10.332-15.916-13.232-20.853
		l-0.042-0.07l-0.051-0.069c-3.827-5.611-9.333-17.156-3.173-31.375c0.619-1.438,1.351-2.841,2.171-4.164
		c0.302-0.481,0.64-0.996,1.021-1.559c6.094-8.752,16.133-13.987,26.84-13.987c6.638,0,13.049,1.997,18.531,5.786
		c5.459,3.765,9.629,9.108,11.974,15.268h-5.301c-0.997-2.188-2.27-4.231-3.792-6.08c-1.643-1.964-3.539-3.692-5.636-5.145
		c-2.115-1.453-4.394-2.61-6.795-3.44c-2.882-0.975-5.868-1.464-8.898-1.464c-9.17,0-17.745,4.499-22.942,12.035
		c-5.145,7.448-6.34,16.976-3.195,25.486c0.003,0.012,0.017,0.043,0.029,0.078c0.118,0.317,0.242,0.639,0.376,0.953
		c0.015,0.044,0.094,0.239,0.094,0.239c0.12,0.274,0.244,0.545,0.371,0.817c0.041,0.097,0.103,0.224,0.165,0.354
		c0.103,0.218,0.21,0.43,0.318,0.645c0.094,0.183,0.18,0.336,0.263,0.498c0.091,0.164,0.186,0.342,0.283,0.51
		c0.109,0.195,0.222,0.389,0.337,0.584c0.086,0.138,0.165,0.272,0.248,0.404c0.128,0.209,0.281,0.44,0.434,0.67
		c0,0,0.138,0.209,0.188,0.285c0.165,0.243,0.343,0.493,0.522,0.736c0,0,0.121,0.168,0.156,0.217c0.2,0.264,0.404,0.529,0.614,0.789
		c0.036,0.051,0.073,0.092,0.106,0.137c0.213,0.265,0.446,0.536,0.688,0.813l0.044,0.047c0.254,0.289,0.498,0.551,0.74,0.807
		c0.121,0.146,0.265,0.287,0.43,0.447c1.148,1.147,2.424,2.215,3.788,3.164c1.389,0.95,2.841,1.762,4.328,2.432
		c0.201,0.104,0.389,0.188,0.567,0.244c0.31,0.137,0.638,0.268,0.992,0.396l0.055,0.021c0.358,0.138,0.704,0.261,1.05,0.373
		c0.045,0.019,0.097,0.026,0.141,0.045c0.334,0.106,0.658,0.209,0.983,0.304c0.045,0.01,0.234,0.065,0.234,0.065
		c0.292,0.076,0.587,0.148,0.881,0.224l0.319,0.073c0.283,0.063,0.548,0.121,0.817,0.175c0.12,0.022,0.277,0.049,0.428,0.075
		c0.231,0.045,0.45,0.082,0.67,0.115c0.209,0.031,0.402,0.062,0.598,0.082c0.164,0.021,0.342,0.045,0.522,0.064
		c0.265,0.029,0.504,0.057,0.743,0.068c0.136,0.016,0.277,0.026,0.417,0.037c0.272,0.021,0.567,0.037,0.862,0.049l0.25,0.015
		c0.274,0.01,0.554,0.013,0.84,0.013h0.254c2.177-0.021,4.355-0.298,6.491-0.824l0.085-0.023l0.083-0.025
		c0.559-0.178,1.112-0.387,1.699-0.633l0.097-0.039l0.089-0.045c9.967-5.139,9.507-12.103,8.348-15.793
		c-0.399-1.262-1.326-4.209-20.149-4.209c-0.508,0-1.014,0.003-1.508,0.014c-0.417,0.003-0.994,0.028-1.669,0.099
		c1.528-0.59,2.897-1.729,3.357-3.94c0.546-2.608-1.858-4.326-4.401-6.146c-0.401-0.288-0.814-0.58-1.221-0.883
		c-0.761-0.567-2.931-2.411-3.343-2.868c-0.949-1.261-0.9-2.72-0.349-3.513c0.608-0.888,1.611-1.366,2.251-1.366
		c0.304,0,0.408,0.104,0.449,0.148c0.637,0.642,0.647,0.972,0.663,2.085c0.015,0.893,0.038,2.007,0.507,3.299l0.05,0.148
		l0.074,0.139c1.92,3.747,3.937,5.563,6.17,5.563h0.079c3.003-0.061,4.639-2.349,5.563-4.6c-0.094,0.614-0.09,1.21,0.045,1.755
		c0.316,1.248,1.313,2.112,2.616,2.318c-0.004,0.003-0.185,0.121-0.185,0.121l-0.156,0.141c-1.044,0.955-1.727,2.247-2.016,3.833
		l-0.208,1.144l0.741,0.908c0.869,1.042,0.869,1.042,8.35,1.042c1.663,0,3.53-0.004,5.461-0.014
		c2.052-0.006,4.176-0.014,6.201-0.014c3.931,0,6.376,0.027,7.876,0.071c-0.123,0.68-0.274,1.359-0.451,2.034l-0.015,0.045
		l-0.033,0.15c-0.728,2.737-1.856,5.366-3.35,7.817l-0.03,0.045l-0.027,0.049c-2.875,5.218-7.597,12.498-14.754,23.521
		C104.466,110.318,99.946,117.288,94.621,125.603z M78.366,75.583c-0.316,0-0.595-0.098-0.897-0.322
		c-0.448-0.33-0.771-0.955-0.811-1.594c-0.027-0.392,0.032-0.941,0.478-1.404c0.13-0.065,0.738-0.303,2.35-0.303
		c1.507,0,2.863,0.209,2.881,0.209l0.204,0.038l0.175-0.003c0.345,0.003,0.669,0.006,0.987,0.006c0.401,0,0.906,0,1.471-0.032
		c-1.427,0.421-2.925,1.09-4.217,2.15c-0.095,0.063-0.186,0.133-0.283,0.204C80.223,74.872,79.228,75.583,78.366,75.583z
		 M111.051,63.088c-0.409,0-0.704-0.057-1.047-0.15c-0.784-0.209-2.729-0.6-4.036-0.627c1.275-0.7,2.295-1.498,3.096-2.124
		c0.33-0.262,0.742-0.581,0.896-0.663c0.499-0.277,0.958-0.418,1.354-0.418c0.121,0,0.235,0.013,0.35,0.038
		c0.523,0.118,0.967,0.438,1.251,0.886c0.286,0.455,0.378,0.992,0.26,1.516c-0.177,0.784-0.76,1.41-1.388,1.489
		C111.518,63.068,111.27,63.088,111.051,63.088z M98.902,57.169c0.107-0.424,0.191-0.796,0.257-1.1
		c0.208-0.936,0.41-3.513,0.263-4.614c-0.015-0.168-0.047-0.336-0.071-0.511c-0.094-0.566-0.148-0.908-0.017-1.413
		c0.228-0.891,1.026-1.511,1.938-1.511c0.168,0,0.336,0.021,0.502,0.063c0.516,0.132,0.95,0.462,1.223,0.92
		c0.277,0.463,0.354,1.002,0.218,1.52c-0.16,0.628-0.413,0.926-0.931,1.492C102.252,52.046,100.131,54.481,98.902,57.169z"/>
</g>
<g>
	<path fill="#5E5F5F" d="M207.951,103.74c-2.578,0.927-7.666,2.447-13.679,2.447c-6.741,0-12.292-1.719-16.653-5.885
		c-3.833-3.695-6.211-9.646-6.211-16.584c0.065-13.284,9.185-22.998,24.119-22.998c5.154,0,9.187,1.122,11.102,2.047l-1.388,4.694
		c-2.38-1.06-5.352-1.918-9.846-1.918c-10.839,0-17.91,6.74-17.91,17.909c0,11.301,6.808,17.975,17.182,17.975
		c3.768,0,6.345-0.531,7.667-1.189v-13.28h-9.055v-4.626h14.671L207.951,103.74L207.951,103.74z"/>
	<path fill="#5E5F5F" d="M220.11,90.787c0.133,7.865,5.153,11.105,10.968,11.105c4.165,0,6.675-0.729,8.855-1.652l0.993,4.164
		c-2.049,0.927-5.55,1.98-10.64,1.98c-9.846,0-15.728-6.477-15.728-16.125c0-9.646,5.685-17.245,15.001-17.245
		c10.442,0,13.216,9.188,13.216,15.067c0,1.188-0.13,2.111-0.197,2.705H220.11L220.11,90.787z M237.159,86.627
		c0.068-3.702-1.52-9.449-8.061-9.449c-5.881,0-8.46,5.417-8.921,9.449H237.159z"/>
	<path fill="#5E5F5F" d="M278.926,89.468c0,11.828-8.195,16.98-15.93,16.98c-8.654,0-15.33-6.342-15.33-16.451
		c0-10.708,7.004-16.983,15.861-16.983C272.711,73.015,278.926,79.69,278.926,89.468z M253.551,89.798
		c0,7.004,4.03,12.291,9.713,12.291c5.551,0,9.711-5.221,9.711-12.424c0-5.418-2.707-12.292-9.58-12.292
		S253.551,83.72,253.551,89.798z"/>
	<path fill="#5E5F5F" d="M340.5,103.74c-2.578,0.927-7.664,2.447-13.68,2.447c-6.74,0-12.289-1.719-16.652-5.885
		c-3.832-3.695-6.209-9.646-6.209-16.584c0.063-13.284,9.184-22.998,24.117-22.998c5.154,0,9.188,1.122,11.104,2.047l-1.389,4.694
		c-2.379-1.06-5.354-1.918-9.848-1.918c-10.836,0-17.908,6.74-17.908,17.909c0,11.301,6.807,17.975,17.184,17.975
		c3.766,0,6.344-0.531,7.664-1.189v-13.28h-9.055v-4.626h14.67v21.41h0.002V103.74z"/>
	<path fill="#5E5F5F" d="M352.665,90.787c0.127,7.865,5.149,11.105,10.968,11.105c4.163,0,6.676-0.729,8.854-1.652l0.994,4.164
		c-2.049,0.927-5.553,1.98-10.642,1.98c-9.846,0-15.729-6.477-15.729-16.125c0-9.646,5.684-17.245,15.004-17.245
		c10.439,0,13.215,9.188,13.215,15.067c0,1.188-0.131,2.111-0.197,2.705H352.665L352.665,90.787z M369.711,86.627
		c0.063-3.702-1.521-9.449-8.063-9.449c-5.881,0-8.459,5.417-8.922,9.449H369.711z"/>
	<path fill="#5E5F5F" d="M405.331,104.535c-1.521,0.793-4.894,1.851-9.188,1.851c-9.646,0-15.926-6.539-15.926-16.319
		c0-9.849,6.738-16.983,17.18-16.983c3.438,0,6.479,0.859,8.063,1.652l-1.319,4.494c-1.392-0.795-3.566-1.521-6.742-1.521
		c-7.334,0-11.299,5.419-11.299,12.094c0,7.399,4.756,11.961,11.104,11.961c3.305,0,5.482-0.86,7.139-1.588L405.331,104.535z"/>
	<path fill="#5E5F5F" d="M417.888,88.412h0.133c0.791-1.127,1.914-2.512,2.84-3.635l9.383-11.036h7.004l-12.354,13.15l14.074,18.834
		h-7.07l-11.037-15.33l-2.973,3.307v12.025h-5.75V58.808h5.75V88.412L417.888,88.412z"/>
	<path fill="#5E5F5F" d="M472.078,89.468c0,11.828-8.197,16.98-15.93,16.98c-8.656,0-15.328-6.342-15.328-16.451
		c0-10.708,7.004-16.983,15.859-16.983C465.865,73.015,472.078,79.69,472.078,89.468z M446.701,89.798
		c0,7.004,4.029,12.291,9.713,12.291c5.555,0,9.715-5.221,9.715-12.424c0-5.418-2.711-12.292-9.582-12.292
		C449.672,77.375,446.701,83.72,446.701,89.798z"/>
	<line fill="none" x1="277.391" y1="73.015" x2="328.331" y2="73.015"/>
</g>
</svg>
