<?xml version="1.0" encoding="utf-8"?>
<!-- Generator: Adobe Illustrator 16.0.0, SVG Export Plug-In . SVG Version: 6.00 Build 0)  -->
<!DOCTYPE svg PUBLIC "-//W3C//DTD SVG 1.1//EN" "http://www.w3.org/Graphics/SVG/1.1/DTD/svg11.dtd">
<svg version="1.1" id="Layer_1" xmlns="http://www.w3.org/2000/svg" xmlns:xlink="http://www.w3.org/1999/xlink" x="0px" y="0px"
	 width="429px" height="110.837px" viewBox="0 0 429 110.837" enable-background="new 0 0 429 110.837" xml:space="preserve">
<g>
	
		<radialGradient id="SVGID_1_" cx="43.9844" cy="101.457" r="38.4588" gradientTransform="matrix(1 0 0 0.1566 0 85.567)" gradientUnits="userSpaceOnUse">
		<stop  offset="0" style="stop-color:#C6C4C3"/>
		<stop  offset="0.3355" style="stop-color:#C9C7C6;stop-opacity:0.6645"/>
		<stop  offset="0.5596" style="stop-color:#D1CFCF;stop-opacity:0.4404"/>
		<stop  offset="0.7513" style="stop-color:#DFDEDE;stop-opacity:0.2487"/>
		<stop  offset="0.9236" style="stop-color:#F4F3F3;stop-opacity:0.0764"/>
		<stop  offset="1" style="stop-color:#FFFFFF;stop-opacity:0"/>
	</radialGradient>
	<ellipse fill="url(#SVGID_1_)" cx="43.984" cy="101.458" rx="38.984" ry="7.174"/>
	<radialGradient id="SVGID_2_" cx="43.894" cy="53.4727" r="43.2098" gradientUnits="userSpaceOnUse">
		<stop  offset="0" style="stop-color:#F5B12D"/>
		<stop  offset="1" style="stop-color:#F27125"/>
	</radialGradient>
	<path fill="url(#SVGID_2_)" d="M79.058,42.146L79.058,42.146L79.058,42.146c0.061-0.645-28.874-0.042-28.795-0.449
		c0.206-1.127,0.649-1.902,1.244-2.449c1.061-0.686,2.306-0.897,3.374-0.996c0.748-0.115,2.943,0.273,3.878,0.523
		c0.647,0.176,1.445,0.331,2.746,0.166c1.698-0.224,3.088-1.634,3.492-3.412c0.554-2.422-0.967-4.826-3.385-5.376
		c-1.235-0.278-2.418,0.06-3.45,0.624c-1.221,0.666-3.491,3.214-7.017,3.912c-0.64,0.082-1.071-0.033-1.177-0.463
		c-0.49-1.939,3.055-6.559,3.55-7.101c0.583-0.634,1.189-1.309,1.507-2.548c0.616-2.404-0.831-4.853-3.237-5.467
		c-2.403-0.615-4.848,0.832-5.464,3.237c-0.318,1.226-0.066,2.064,0.032,2.86c0.1,0.744-0.071,3.051-0.229,3.759
		c-0.645,2.95-1.676,6.167-4.235,6.222c-1.698,0.033-3.408-3.081-3.987-4.21c-0.855-2.364,0.427-4.104-1.737-6.288
		c-1.745-1.762-4.963-0.707-6.522,1.56c-1.215,1.773-1.112,4.429,0.454,6.466c0.433,0.566,3.039,2.751,3.812,3.326
		c2.383,1.768,4.927,3.277,4.668,4.521c-0.557,2.655-3.488,2.617-6.414,2.586c-0.135-0.023-5.695-0.864-7.319,0.712
		c-2.073,2.021-1.456,5.369,0.544,6.837c2.905,2.136,5.907-0.608,6.467-0.927c2.615-2.229,6.581-2.366,7.499-2.377
		c8.145-0.104,18.691,0.672,19.254,2.453c1.59,5.065-0.551,9.457-7.116,12.84c-0.487,0.206-0.986,0.394-1.512,0.562
		c-1.928,0.479-3.905,0.737-5.894,0.755c-0.018,0-0.039,0-0.062,0c-0.318,0.002-0.642-0.001-0.964-0.012
		c-0.068-0.003-0.145-0.006-0.213-0.006c-0.269-0.011-0.542-0.027-0.81-0.044c-0.121-0.008-0.239-0.019-0.358-0.027
		c-0.224-0.022-0.446-0.044-0.666-0.068c-0.163-0.021-0.331-0.039-0.495-0.061c-0.174-0.023-0.351-0.047-0.531-0.078
		c-0.204-0.03-0.404-0.063-0.613-0.102c-0.136-0.022-0.269-0.049-0.408-0.077c-0.242-0.041-0.483-0.094-0.72-0.149
		c-0.1-0.023-0.2-0.048-0.301-0.07c-0.271-0.063-0.542-0.138-0.81-0.21c-0.073-0.019-0.141-0.033-0.209-0.058
		c-0.296-0.082-0.591-0.176-0.887-0.271c-0.042-0.013-0.082-0.026-0.127-0.04c-0.319-0.102-0.632-0.216-0.946-0.333
		c-0.022-0.006-0.042-0.017-0.062-0.022c-0.333-0.129-0.664-0.26-0.991-0.399c0,0-0.006-0.003-0.009-0.003
		c-0.092-0.027-0.224-0.088-0.383-0.163c-1.36-0.611-2.69-1.352-3.964-2.222c-1.268-0.882-2.43-1.864-3.489-2.923
		c-0.127-0.115-0.221-0.218-0.282-0.294c-0.003-0.006-0.003-0.006-0.007-0.012c-0.248-0.256-0.487-0.517-0.72-0.781
		c-0.017-0.018-0.035-0.036-0.047-0.052c-0.223-0.251-0.443-0.508-0.648-0.769c-0.03-0.03-0.059-0.067-0.086-0.102
		c-0.191-0.243-0.381-0.486-0.566-0.736c-0.045-0.052-0.086-0.112-0.127-0.168c-0.162-0.229-0.327-0.455-0.486-0.688
		c-0.056-0.085-0.115-0.168-0.171-0.254c-0.132-0.208-0.268-0.412-0.398-0.621c-0.074-0.114-0.147-0.232-0.215-0.354
		c-0.109-0.179-0.213-0.36-0.315-0.54c-0.089-0.154-0.175-0.311-0.256-0.471c-0.083-0.146-0.162-0.291-0.237-0.436
		c-0.1-0.2-0.197-0.403-0.295-0.603c-0.052-0.109-0.103-0.214-0.155-0.324c-0.113-0.245-0.225-0.494-0.331-0.741
		c-0.026-0.066-0.058-0.133-0.08-0.196c-0.125-0.3-0.241-0.6-0.354-0.899c-0.009-0.018-0.015-0.036-0.021-0.056
		c-2.761-7.482-1.969-16.151,2.907-23.213c6.582-9.536,18.522-13.167,28.985-9.637c2.14,0.745,4.228,1.785,6.19,3.135
		c1.962,1.36,3.675,2.943,5.131,4.684c1.742,2.121,3.1,4.484,4.063,6.987h10.365c-2.088-7.771-6.829-14.873-13.974-19.804
		C47.998-1.28,26.168,2.688,15.107,18.572c-0.384,0.567-0.746,1.116-1.083,1.654c-0.894,1.452-1.678,2.951-2.339,4.482
		C5.991,37.85,9.294,49.976,15.094,58.475c4.951,8.419,13.646,21.271,28.791,44.975h0.263c16.889-26.44,25.759-39.374,30.359-47.724
		l0,0c1.735-2.843,2.905-5.714,3.645-8.525c0-0.003,0.004-0.011,0.007-0.015c0.005-0.021,0.009-0.046,0.014-0.07
		c0.295-1.117,0.516-2.226,0.684-3.316c-0.008-0.003-0.011-0.004-0.014-0.008C78.931,43.239,78.999,42.691,79.058,42.146z"/>
	
		<radialGradient id="SVGID_3_" cx="44.252" cy="96.7471" r="40.1371" gradientTransform="matrix(1 0 0 0.9288 0 6.8876)" gradientUnits="userSpaceOnUse">
		<stop  offset="0" style="stop-color:#FFFFFF;stop-opacity:0.8"/>
		<stop  offset="1" style="stop-color:#FFFFFF;stop-opacity:0"/>
	</radialGradient>
	<path fill="url(#SVGID_3_)" d="M44.02,99.037c-5.326-8.307-9.844-15.265-13.551-20.975c-6-9.236-10.332-15.915-13.232-20.852
		l-0.042-0.07l-0.051-0.071c-3.827-5.611-9.333-17.156-3.173-31.373c0.619-1.438,1.351-2.841,2.171-4.164
		c0.302-0.481,0.64-0.996,1.021-1.559c6.094-8.752,16.133-13.987,26.84-13.987c6.638,0,13.049,1.997,18.531,5.786
		c5.459,3.765,9.629,9.108,11.974,15.268h-5.301c-0.997-2.188-2.27-4.231-3.792-6.08c-1.643-1.964-3.539-3.692-5.636-5.145
		c-2.115-1.453-4.394-2.61-6.795-3.44c-2.882-0.975-5.868-1.464-8.898-1.464c-9.17,0-17.745,4.499-22.942,12.035
		c-5.145,7.448-6.34,16.976-3.195,25.485c0.003,0.013,0.017,0.043,0.029,0.079c0.118,0.317,0.242,0.639,0.376,0.953
		c0.015,0.044,0.094,0.239,0.094,0.239c0.12,0.275,0.244,0.545,0.371,0.817c0.041,0.097,0.103,0.224,0.165,0.354
		c0.103,0.218,0.21,0.43,0.318,0.644c0.094,0.183,0.18,0.337,0.263,0.498c0.091,0.164,0.186,0.343,0.283,0.511
		c0.109,0.194,0.222,0.388,0.337,0.584c0.086,0.137,0.165,0.272,0.248,0.404c0.128,0.209,0.281,0.44,0.434,0.669
		c0,0,0.138,0.21,0.188,0.286c0.165,0.243,0.343,0.493,0.522,0.736c0,0,0.121,0.168,0.156,0.217c0.2,0.264,0.404,0.529,0.614,0.79
		c0.036,0.05,0.073,0.091,0.106,0.136c0.213,0.264,0.446,0.536,0.688,0.812l0.044,0.048c0.254,0.289,0.498,0.551,0.74,0.806
		c0.121,0.146,0.265,0.287,0.43,0.447c1.148,1.15,2.424,2.216,3.788,3.164c1.389,0.952,2.841,1.763,4.328,2.432
		c0.201,0.103,0.389,0.188,0.567,0.245c0.31,0.135,0.638,0.267,0.992,0.396l0.055,0.022c0.358,0.136,0.704,0.26,1.05,0.372
		c0.045,0.018,0.097,0.028,0.141,0.045c0.334,0.107,0.658,0.209,0.983,0.303c0.045,0.01,0.234,0.066,0.234,0.066
		c0.292,0.076,0.587,0.151,0.881,0.223l0.319,0.074c0.283,0.063,0.548,0.121,0.817,0.174c0.12,0.023,0.277,0.05,0.428,0.077
		c0.231,0.044,0.45,0.082,0.67,0.115c0.209,0.033,0.402,0.061,0.598,0.082c0.164,0.022,0.342,0.045,0.522,0.066
		c0.265,0.03,0.504,0.055,0.743,0.069c0.136,0.014,0.277,0.027,0.417,0.036c0.272,0.021,0.567,0.037,0.862,0.049l0.25,0.009
		c0.274,0.01,0.554,0.013,0.84,0.013h0.254c2.177-0.021,4.355-0.297,6.491-0.825l0.085-0.024l0.083-0.026
		c0.559-0.178,1.112-0.387,1.699-0.632l0.097-0.04l0.089-0.044c9.967-5.139,9.507-12.103,8.348-15.794
		c-0.399-1.263-1.326-4.21-20.149-4.21c-0.508,0-1.014,0.003-1.508,0.014c-0.417,0.003-0.994,0.028-1.669,0.099
		c1.528-0.59,2.897-1.729,3.357-3.94c0.546-2.608-1.858-4.326-4.401-6.145c-0.401-0.288-0.814-0.58-1.221-0.883
		c-0.761-0.567-2.931-2.411-3.343-2.868c-0.949-1.261-0.9-2.72-0.349-3.513c0.608-0.888,1.611-1.366,2.251-1.366
		c0.304,0,0.408,0.104,0.449,0.148c0.637,0.642,0.647,0.972,0.663,2.085c0.015,0.893,0.038,2.007,0.507,3.299l0.05,0.148
		l0.074,0.139c1.92,3.747,3.937,5.563,6.17,5.563h0.079c3.003-0.061,4.639-2.349,5.563-4.6c-0.094,0.614-0.09,1.21,0.045,1.755
		c0.316,1.248,1.313,2.112,2.616,2.318c-0.004,0.003-0.185,0.121-0.185,0.121l-0.156,0.141c-1.044,0.955-1.727,2.247-2.016,3.833
		l-0.208,1.144l0.741,0.908c0.869,1.042,0.869,1.042,8.35,1.042c1.663,0,3.53-0.004,5.461-0.014
		c2.052-0.006,4.176-0.014,6.201-0.014c3.931,0,6.376,0.027,7.876,0.071c-0.123,0.68-0.274,1.359-0.451,2.034l-0.015,0.045
		l-0.033,0.15c-0.728,2.737-1.856,5.366-3.35,7.817l-0.03,0.045l-0.027,0.05c-2.875,5.216-7.597,12.498-14.754,23.52
		C53.865,83.755,49.345,90.723,44.02,99.037z M27.765,49.017c-0.316,0-0.595-0.097-0.897-0.321
		c-0.448-0.331-0.771-0.956-0.811-1.595c-0.027-0.391,0.032-0.941,0.478-1.404c0.13-0.065,0.738-0.303,2.35-0.303
		c1.507,0,2.863,0.209,2.881,0.209l0.204,0.038l0.175-0.003c0.345,0.003,0.669,0.006,0.987,0.006c0.401,0,0.906,0,1.471-0.032
		c-1.427,0.421-2.925,1.09-4.217,2.15c-0.095,0.063-0.186,0.132-0.283,0.204C29.622,48.307,28.627,49.017,27.765,49.017z
		 M60.45,36.523c-0.409,0-0.704-0.057-1.047-0.15c-0.784-0.209-2.729-0.6-4.036-0.627c1.275-0.7,2.295-1.498,3.096-2.124
		c0.33-0.262,0.742-0.581,0.896-0.663c0.499-0.277,0.958-0.418,1.354-0.418c0.121,0,0.235,0.013,0.35,0.038
		c0.523,0.118,0.967,0.438,1.251,0.886c0.286,0.455,0.378,0.992,0.26,1.516c-0.177,0.784-0.76,1.41-1.388,1.489
		C60.917,36.504,60.669,36.523,60.45,36.523z M48.302,30.604c0.107-0.424,0.191-0.796,0.257-1.1c0.208-0.936,0.41-3.513,0.263-4.614
		c-0.015-0.168-0.047-0.336-0.071-0.511c-0.094-0.566-0.148-0.908-0.017-1.413c0.228-0.891,1.026-1.511,1.938-1.511
		c0.168,0,0.336,0.021,0.502,0.063c0.516,0.132,0.95,0.462,1.223,0.92c0.277,0.463,0.354,1.002,0.218,1.52
		c-0.16,0.628-0.413,0.926-0.931,1.492C51.652,25.481,49.531,27.916,48.302,30.604z"/>
</g>
<path fill="#5E5F5F" d="M127.38,79.47c-0.03,0.508-0.059,1.077-0.059,1.937v4.082c0,1.616-0.319,2.605-1.002,3.214
	c-0.684,0.645-1.675,0.843-2.56,0.843c-0.844,0-1.776-0.198-2.342-0.579l0.321-0.975c0.466,0.291,1.191,0.554,2.064,0.554
	c1.309,0,2.268-0.684,2.268-2.457v-0.787h-0.029c-0.392,0.657-1.148,1.178-2.239,1.178c-1.745,0-2.995-1.48-2.995-3.432
	c0-2.385,1.556-3.734,3.17-3.734c1.221,0,1.89,0.638,2.196,1.216h0.029l0.057-1.059H127.38z M126.057,82.247
	c0-0.218-0.017-0.408-0.074-0.584c-0.233-0.738-0.858-1.35-1.788-1.35c-1.221,0-2.094,1.03-2.094,2.66
	c0,1.383,0.697,2.533,2.079,2.533c0.785,0,1.496-0.496,1.775-1.311c0.072-0.218,0.103-0.465,0.103-0.683V82.247z"/>
<path fill="#5E5F5F" d="M130.158,83.221c0.03,1.732,1.135,2.445,2.415,2.445c0.916,0,1.469-0.159,1.949-0.365l0.216,0.917
	c-0.451,0.204-1.221,0.438-2.339,0.438c-2.167,0-3.461-1.427-3.461-3.548c0-2.125,1.25-3.795,3.3-3.795
	c2.295,0,2.908,2.018,2.908,3.313c0,0.262-0.03,0.466-0.044,0.595H130.158z M133.91,82.307c0.012-0.815-0.334-2.079-1.773-2.079
	c-1.295,0-1.863,1.19-1.964,2.079H133.91z"/>
<path fill="#5E5F5F" d="M143.103,82.932c0,2.603-1.802,3.737-3.504,3.737c-1.906,0-3.373-1.398-3.373-3.622
	c0-2.354,1.542-3.734,3.489-3.734C141.736,79.313,143.103,80.778,143.103,82.932z M137.518,83.006c0,1.54,0.888,2.703,2.138,2.703
	c1.224,0,2.138-1.149,2.138-2.735c0-1.192-0.596-2.705-2.108-2.705S137.518,81.663,137.518,83.006z"/>
<path fill="#5E5F5F" d="M146.144,77.492c0.015,0.437-0.304,0.785-0.814,0.785c-0.451,0-0.772-0.349-0.772-0.785
	c0-0.453,0.334-0.798,0.801-0.798C145.84,76.694,146.144,77.039,146.144,77.492z M144.719,86.509V79.47h1.28v7.039H144.719z"/>
<path fill="#5E5F5F" d="M148.122,81.374c0-0.725-0.014-1.322-0.058-1.904h1.133l0.073,1.162h0.03
	c0.35-0.666,1.164-1.319,2.326-1.319c0.975,0,2.486,0.579,2.486,2.994v4.202h-1.279v-4.056c0-1.137-0.422-2.079-1.628-2.079
	c-0.845,0-1.498,0.594-1.714,1.305c-0.059,0.16-0.088,0.38-0.088,0.599v4.231h-1.282V81.374z"/>
<path fill="#5E5F5F" d="M157.679,77.449v2.021h1.832v0.976h-1.832v3.795c0,0.87,0.247,1.366,0.958,1.366
	c0.337,0,0.583-0.042,0.745-0.088l0.058,0.96c-0.247,0.103-0.64,0.177-1.133,0.177c-0.598,0-1.078-0.189-1.383-0.54
	c-0.363-0.379-0.495-1.005-0.495-1.833v-3.837h-1.089V79.47h1.089v-1.688L157.679,77.449z"/>
<path fill="#5E5F5F" d="M161.576,83.221c0.032,1.732,1.135,2.445,2.414,2.445c0.917,0,1.471-0.159,1.95-0.365l0.218,0.917
	c-0.451,0.204-1.223,0.438-2.342,0.438c-2.166,0-3.461-1.427-3.461-3.548c0-2.125,1.253-3.795,3.302-3.795
	c2.297,0,2.908,2.018,2.908,3.313c0,0.262-0.029,0.466-0.044,0.595H161.576z M165.331,82.307c0.012-0.815-0.336-2.079-1.776-2.079
	c-1.294,0-1.861,1.19-1.963,2.079H165.331z"/>
<path fill="#5E5F5F" d="M168.151,76.186h1.28v10.323h-1.28V76.186z"/>
<path fill="#5E5F5F" d="M171.584,76.186h1.28v10.323h-1.28V76.186z"/>
<path fill="#5E5F5F" d="M176.443,77.492c0.014,0.437-0.307,0.785-0.814,0.785c-0.451,0-0.771-0.349-0.771-0.785
	c0-0.453,0.333-0.798,0.799-0.798C176.136,76.694,176.443,77.039,176.443,77.492z M175.018,86.509V79.47h1.28v7.039H175.018z"/>
<path fill="#5E5F5F" d="M184.485,79.47c-0.029,0.508-0.058,1.077-0.058,1.937v4.082c0,1.616-0.32,2.605-1.003,3.214
	c-0.686,0.645-1.672,0.843-2.56,0.843c-0.843,0-1.773-0.198-2.342-0.579l0.319-0.975c0.468,0.291,1.192,0.554,2.067,0.554
	c1.308,0,2.269-0.684,2.269-2.457v-0.787h-0.03c-0.392,0.657-1.148,1.178-2.238,1.178c-1.746,0-2.996-1.48-2.996-3.432
	c0-2.385,1.555-3.734,3.17-3.734c1.22,0,1.891,0.638,2.195,1.216h0.027l0.059-1.059H184.485z M183.161,82.247
	c0-0.218-0.015-0.408-0.074-0.584c-0.23-0.738-0.855-1.35-1.787-1.35c-1.223,0-2.094,1.03-2.094,2.66
	c0,1.383,0.698,2.533,2.079,2.533c0.785,0,1.498-0.496,1.775-1.311c0.071-0.218,0.102-0.465,0.102-0.683V82.247z"/>
<path fill="#5E5F5F" d="M187.263,83.221c0.03,1.732,1.136,2.445,2.415,2.445c0.915,0,1.468-0.159,1.949-0.365l0.218,0.917
	c-0.451,0.204-1.221,0.438-2.341,0.438c-2.167,0-3.462-1.427-3.462-3.548c0-2.125,1.251-3.795,3.3-3.795
	c2.3,0,2.911,2.018,2.911,3.313c0,0.262-0.032,0.466-0.045,0.595H187.263z M191.017,82.307c0.012-0.815-0.337-2.079-1.775-2.079
	c-1.295,0-1.861,1.19-1.964,2.079H191.017z"/>
<path fill="#5E5F5F" d="M193.836,81.374c0-0.725-0.014-1.322-0.056-1.904h1.135l0.073,1.162h0.028
	c0.348-0.666,1.162-1.319,2.326-1.319c0.975,0,2.488,0.579,2.488,2.994v4.202h-1.28v-4.056c0-1.137-0.422-2.079-1.628-2.079
	c-0.844,0-1.498,0.594-1.717,1.305c-0.056,0.16-0.086,0.38-0.086,0.599v4.231h-1.282V81.374z"/>
<path fill="#5E5F5F" d="M206.929,86.248c-0.334,0.174-1.079,0.407-2.02,0.407c-2.125,0-3.506-1.44-3.506-3.594
	c0-2.165,1.481-3.735,3.78-3.735c0.756,0,1.424,0.186,1.773,0.361l-0.291,0.989c-0.306-0.176-0.784-0.333-1.483-0.333
	c-1.613,0-2.486,1.192-2.486,2.662c0,1.625,1.046,2.631,2.441,2.631c0.729,0,1.208-0.189,1.572-0.348L206.929,86.248z"/>
<path fill="#5E5F5F" d="M209.052,83.221c0.03,1.732,1.136,2.445,2.417,2.445c0.914,0,1.467-0.159,1.947-0.365l0.218,0.917
	c-0.451,0.204-1.221,0.438-2.341,0.438c-2.167,0-3.46-1.427-3.46-3.548c0-2.125,1.25-3.795,3.299-3.795
	c2.3,0,2.911,2.018,2.911,3.313c0,0.262-0.032,0.466-0.044,0.595H209.052z M212.805,82.307c0.014-0.815-0.334-2.079-1.773-2.079
	c-1.295,0-1.863,1.19-1.965,2.079H212.805z"/>
<path fill="#5E5F5F" d="M219.424,83.221c0.03,1.732,1.135,2.445,2.414,2.445c0.916,0,1.469-0.159,1.947-0.365l0.218,0.917
	c-0.448,0.204-1.22,0.438-2.339,0.438c-2.168,0-3.46-1.427-3.46-3.548c0-2.125,1.251-3.795,3.3-3.795
	c2.299,0,2.908,2.018,2.908,3.313c0,0.262-0.029,0.466-0.042,0.595H219.424z M223.176,82.307c0.015-0.815-0.334-2.079-1.775-2.079
	c-1.294,0-1.861,1.19-1.963,2.079H223.176z"/>
<path fill="#5E5F5F" d="M226.551,79.47l1.003,1.513c0.26,0.392,0.481,0.757,0.712,1.15h0.044c0.233-0.424,0.468-0.789,0.698-1.165
	l0.988-1.498h1.383l-2.398,3.404l2.469,3.635h-1.454l-1.033-1.586c-0.272-0.405-0.507-0.799-0.755-1.222h-0.027
	c-0.235,0.423-0.481,0.801-0.743,1.222l-1.017,1.586h-1.41l2.5-3.593l-2.385-3.446H226.551z"/>
<path fill="#5E5F5F" d="M237.488,86.248c-0.333,0.174-1.076,0.407-2.021,0.407c-2.123,0-3.504-1.44-3.504-3.594
	c0-2.165,1.483-3.735,3.783-3.735c0.755,0,1.425,0.186,1.773,0.361l-0.292,0.989c-0.306-0.176-0.787-0.333-1.481-0.333
	c-1.616,0-2.488,1.192-2.488,2.662c0,1.625,1.046,2.631,2.442,2.631c0.726,0,1.208-0.189,1.569-0.348L237.488,86.248z"/>
<path fill="#5E5F5F" d="M239.614,83.221c0.029,1.732,1.135,2.445,2.413,2.445c0.917,0,1.469-0.159,1.948-0.365l0.218,0.917
	c-0.449,0.204-1.221,0.438-2.339,0.438c-2.168,0-3.46-1.427-3.46-3.548c0-2.125,1.25-3.795,3.3-3.795
	c2.297,0,2.907,2.018,2.907,3.313c0,0.262-0.027,0.466-0.042,0.595H239.614z M243.365,82.307c0.015-0.815-0.334-2.079-1.775-2.079
	c-1.294,0-1.861,1.19-1.962,2.079H243.365z"/>
<path fill="#5E5F5F" d="M246.188,76.186h1.28v10.323h-1.28V76.186z"/>
<path fill="#5E5F5F" d="M249.621,76.186h1.28v10.323h-1.28V76.186z"/>
<path fill="#5E5F5F" d="M253.766,83.221c0.029,1.732,1.134,2.445,2.414,2.445c0.917,0,1.468-0.159,1.949-0.365l0.216,0.917
	c-0.448,0.204-1.22,0.438-2.341,0.438c-2.166,0-3.46-1.427-3.46-3.548c0-2.125,1.251-3.795,3.303-3.795
	c2.295,0,2.906,2.018,2.906,3.313c0,0.262-0.027,0.466-0.043,0.595H253.766z M257.519,82.307c0.014-0.815-0.336-2.079-1.775-2.079
	c-1.295,0-1.861,1.19-1.964,2.079H257.519z"/>
<path fill="#5E5F5F" d="M260.341,81.374c0-0.725-0.015-1.322-0.058-1.904h1.133l0.074,1.162h0.026
	c0.353-0.666,1.165-1.319,2.327-1.319c0.973,0,2.491,0.579,2.491,2.994v4.202h-1.283v-4.056c0-1.137-0.421-2.079-1.628-2.079
	c-0.843,0-1.497,0.594-1.716,1.305c-0.057,0.16-0.086,0.38-0.086,0.599v4.231h-1.28V81.374z"/>
<path fill="#5E5F5F" d="M273.431,86.248c-0.334,0.174-1.076,0.407-2.022,0.407c-2.123,0-3.504-1.44-3.504-3.594
	c0-2.165,1.484-3.735,3.783-3.735c0.755,0,1.425,0.186,1.771,0.361l-0.292,0.989c-0.304-0.176-0.785-0.333-1.479-0.333
	c-1.618,0-2.489,1.192-2.489,2.662c0,1.625,1.047,2.631,2.444,2.631c0.726,0,1.208-0.189,1.569-0.348L273.431,86.248z"/>
<path fill="#5E5F5F" d="M275.555,83.221c0.029,1.732,1.133,2.445,2.415,2.445c0.916,0,1.468-0.159,1.947-0.365l0.218,0.917
	c-0.448,0.204-1.221,0.438-2.341,0.438c-2.168,0-3.462-1.427-3.462-3.548c0-2.125,1.251-3.795,3.303-3.795
	c2.295,0,2.907,2.018,2.907,3.313c0,0.262-0.027,0.466-0.042,0.595H275.555z M279.306,82.307c0.015-0.815-0.334-2.079-1.773-2.079
	c-1.294,0-1.861,1.19-1.963,2.079H279.306z"/>
<path fill="#5E5F5F" d="M286.639,77.492c0.014,0.437-0.306,0.785-0.816,0.785c-0.451,0-0.77-0.349-0.77-0.785
	c0-0.453,0.333-0.798,0.8-0.798C286.333,76.694,286.639,77.039,286.639,77.492z M285.213,86.509V79.47h1.282v7.039H285.213z"/>
<path fill="#5E5F5F" d="M288.617,81.374c0-0.725-0.014-1.322-0.056-1.904h1.13l0.074,1.162h0.032
	c0.348-0.666,1.162-1.319,2.326-1.319c0.973,0,2.486,0.579,2.486,2.994v4.202h-1.278v-4.056c0-1.137-0.424-2.079-1.628-2.079
	c-0.844,0-1.499,0.594-1.716,1.305c-0.061,0.16-0.087,0.38-0.087,0.599v4.231h-1.282V81.374z"/>
<path fill="#5E5F5F" d="M301.082,76.706v5.805c0,2.194,0.973,3.126,2.285,3.126c1.452,0,2.383-0.959,2.383-3.126v-5.805h1.279v5.717
	c0,3.008-1.584,4.246-3.708,4.246c-2.007,0-3.521-1.15-3.521-4.186v-5.777H301.082z"/>
<path fill="#5E5F5F" d="M315.249,79.47c-0.03,0.508-0.06,1.077-0.06,1.937v4.082c0,1.616-0.316,2.605-1.002,3.214
	c-0.686,0.645-1.674,0.843-2.558,0.843c-0.845,0-1.774-0.198-2.343-0.579l0.318-0.975c0.467,0.291,1.191,0.554,2.064,0.554
	c1.31,0,2.271-0.684,2.271-2.457v-0.787h-0.03c-0.391,0.657-1.148,1.178-2.24,1.178c-1.744,0-2.994-1.48-2.994-3.432
	c0-2.385,1.556-3.734,3.17-3.734c1.221,0,1.892,0.638,2.195,1.216h0.031l0.056-1.059H315.249z M313.927,82.247
	c0-0.218-0.017-0.408-0.074-0.584c-0.233-0.738-0.858-1.35-1.788-1.35c-1.223,0-2.096,1.03-2.096,2.66
	c0,1.383,0.699,2.533,2.08,2.533c0.787,0,1.496-0.496,1.775-1.311c0.074-0.218,0.103-0.465,0.103-0.683V82.247z"/>
<path fill="#5E5F5F" d="M321.213,86.509l-0.104-0.884h-0.045c-0.391,0.551-1.148,1.044-2.148,1.044
	c-1.426,0-2.154-1.003-2.154-2.021c0-1.702,1.514-2.633,4.232-2.618v-0.146c0-0.581-0.158-1.627-1.6-1.627
	c-0.656,0-1.338,0.201-1.832,0.522l-0.293-0.842c0.582-0.38,1.424-0.624,2.313-0.624c2.154,0,2.678,1.466,2.678,2.874v2.635
	c0,0.609,0.027,1.206,0.117,1.688H321.213z M321.025,82.916c-1.396-0.028-2.984,0.218-2.984,1.586c0,0.828,0.553,1.221,1.207,1.221
	c0.916,0,1.496-0.582,1.703-1.177c0.043-0.132,0.074-0.276,0.074-0.407V82.916z"/>
<path fill="#5E5F5F" d="M324.326,81.374c0-0.725-0.016-1.322-0.057-1.904h1.135l0.072,1.162h0.029
	c0.348-0.666,1.162-1.319,2.326-1.319c0.973,0,2.482,0.579,2.482,2.994v4.202h-1.277v-4.056c0-1.137-0.422-2.079-1.627-2.079
	c-0.844,0-1.496,0.594-1.717,1.305c-0.059,0.16-0.088,0.38-0.088,0.599v4.231h-1.279V81.374z"/>
<path fill="#5E5F5F" d="M338.479,76.186v8.504c0,0.624,0.012,1.338,0.057,1.819h-1.148l-0.059-1.22h-0.027
	c-0.391,0.783-1.252,1.38-2.398,1.38c-1.701,0-3.016-1.44-3.016-3.577c-0.014-2.342,1.443-3.779,3.16-3.779
	c1.076,0,1.801,0.508,2.123,1.075h0.029v-4.202H338.479z M337.199,82.337c0-0.165-0.016-0.38-0.059-0.54
	c-0.189-0.814-0.889-1.483-1.844-1.483c-1.328,0-2.113,1.162-2.113,2.72c0,1.425,0.699,2.604,2.082,2.604
	c0.857,0,1.645-0.567,1.875-1.528c0.043-0.174,0.059-0.348,0.059-0.554V82.337z"/>
<path fill="#5E5F5F" d="M344.502,86.509l-0.104-0.884h-0.043c-0.393,0.551-1.15,1.044-2.152,1.044c-1.424,0-2.15-1.003-2.15-2.021
	c0-1.702,1.51-2.633,4.23-2.618v-0.146c0-0.581-0.162-1.627-1.602-1.627c-0.652,0-1.338,0.201-1.83,0.522l-0.291-0.842
	c0.582-0.38,1.424-0.624,2.313-0.624c2.15,0,2.676,1.466,2.676,2.874v2.635c0,0.609,0.027,1.206,0.113,1.688H344.502z
	 M344.311,82.916c-1.395-0.028-2.98,0.218-2.98,1.586c0,0.828,0.553,1.221,1.207,1.221c0.918,0,1.5-0.582,1.701-1.177
	c0.045-0.132,0.072-0.276,0.072-0.407V82.916z"/>
<path fill="#5E5F5F" d="M354.594,86.509l-0.102-0.884h-0.041c-0.395,0.551-1.15,1.044-2.154,1.044c-1.426,0-2.152-1.003-2.152-2.021
	c0-1.702,1.514-2.633,4.23-2.618v-0.146c0-0.581-0.158-1.627-1.596-1.627c-0.658,0-1.34,0.201-1.834,0.522l-0.293-0.842
	c0.58-0.38,1.424-0.624,2.313-0.624c2.154,0,2.678,1.466,2.678,2.874v2.635c0,0.609,0.029,1.206,0.115,1.688H354.594z
	 M354.406,82.916c-1.396-0.028-2.982,0.218-2.982,1.586c0,0.828,0.553,1.221,1.207,1.221c0.916,0,1.498-0.582,1.703-1.177
	c0.041-0.132,0.072-0.276,0.072-0.407V82.916z"/>
<path fill="#5E5F5F" d="M357.709,81.374c0-0.725-0.016-1.322-0.059-1.904h1.133l0.072,1.162h0.031
	c0.348-0.666,1.162-1.319,2.324-1.319c0.977,0,2.488,0.579,2.488,2.994v4.202h-1.279v-4.056c0-1.137-0.422-2.079-1.629-2.079
	c-0.844,0-1.498,0.594-1.715,1.305c-0.059,0.16-0.088,0.38-0.088,0.599v4.231h-1.279V81.374z"/>
<path fill="#5E5F5F" d="M371.857,76.186v8.504c0,0.624,0.018,1.338,0.061,1.819h-1.15l-0.059-1.22h-0.027
	c-0.393,0.783-1.25,1.38-2.4,1.38c-1.701,0-3.01-1.44-3.01-3.577c-0.016-2.342,1.439-3.779,3.154-3.779
	c1.08,0,1.807,0.508,2.127,1.075h0.025v-4.202H371.857z M370.578,82.337c0-0.165-0.012-0.38-0.055-0.54
	c-0.191-0.814-0.889-1.483-1.85-1.483c-1.324,0-2.109,1.162-2.109,2.72c0,1.425,0.699,2.604,2.08,2.604
	c0.861,0,1.645-0.567,1.879-1.528c0.043-0.174,0.055-0.348,0.055-0.554V82.337z"/>
<path fill="#5E5F5F" d="M377.008,86.509c0.033-0.481,0.061-1.195,0.061-1.819v-8.504h1.266v4.417h0.031
	c0.447-0.782,1.26-1.29,2.398-1.29c1.74,0,2.98,1.452,2.965,3.589c0,2.518-1.584,3.768-3.158,3.768
	c-1.016,0-1.826-0.394-2.354-1.325h-0.043l-0.057,1.165H377.008z M378.334,83.688c0,0.161,0.031,0.321,0.059,0.465
	c0.248,0.889,0.988,1.498,1.918,1.498c1.34,0,2.139-1.091,2.139-2.705c0-1.409-0.727-2.616-2.096-2.616
	c-0.871,0-1.686,0.596-1.947,1.57c-0.029,0.146-0.072,0.319-0.072,0.523V83.688z"/>
<path fill="#5E5F5F" d="M386.057,83.221c0.029,1.732,1.135,2.445,2.414,2.445c0.916,0,1.469-0.159,1.951-0.365l0.217,0.917
	c-0.451,0.204-1.223,0.438-2.342,0.438c-2.168,0-3.463-1.427-3.463-3.548c0-2.125,1.252-3.795,3.305-3.795
	c2.297,0,2.908,2.018,2.908,3.313c0,0.262-0.029,0.466-0.045,0.595H386.057z M389.811,82.307c0.016-0.815-0.336-2.079-1.773-2.079
	c-1.297,0-1.861,1.19-1.967,2.079H389.811z"/>
<path fill="#5E5F5F" d="M393.098,79.47l1.541,4.161c0.162,0.463,0.334,1.017,0.451,1.438h0.027c0.133-0.422,0.279-0.961,0.453-1.469
	l1.395-4.131h1.354l-1.918,5.018c-0.92,2.413-1.543,3.65-2.418,4.404c-0.621,0.556-1.25,0.773-1.568,0.831l-0.318-1.076
	c0.318-0.102,0.74-0.305,1.115-0.623c0.352-0.279,0.791-0.773,1.08-1.429c0.059-0.129,0.102-0.234,0.102-0.304
	c0-0.073-0.029-0.176-0.088-0.333l-2.602-6.488H393.098z"/>
<path fill="#5E5F5F" d="M405.709,82.932c0,2.603-1.807,3.737-3.506,3.737c-1.906,0-3.375-1.398-3.375-3.622
	c0-2.354,1.541-3.734,3.488-3.734C404.338,79.313,405.709,80.778,405.709,82.932z M400.123,83.006c0,1.54,0.887,2.703,2.135,2.703
	c1.225,0,2.141-1.149,2.141-2.735c0-1.192-0.596-2.705-2.109-2.705C400.777,80.269,400.123,81.663,400.123,83.006z"/>
<path fill="#5E5F5F" d="M407.324,81.374c0-0.725-0.016-1.322-0.061-1.904h1.133l0.072,1.162h0.031
	c0.352-0.666,1.164-1.319,2.326-1.319c0.975,0,2.486,0.579,2.486,2.994v4.202h-1.277v-4.056c0-1.137-0.422-2.079-1.631-2.079
	c-0.842,0-1.498,0.594-1.715,1.305c-0.057,0.16-0.09,0.38-0.09,0.599v4.231h-1.275V81.374z"/>
<path fill="#5E5F5F" d="M421.473,76.186v8.504c0,0.624,0.016,1.338,0.061,1.819h-1.15l-0.057-1.22h-0.029
	c-0.395,0.783-1.25,1.38-2.4,1.38c-1.699,0-3.01-1.44-3.01-3.577c-0.018-2.342,1.441-3.779,3.154-3.779
	c1.076,0,1.807,0.508,2.127,1.075h0.027v-4.202H421.473z M420.195,82.337c0-0.165-0.016-0.38-0.059-0.54
	c-0.189-0.814-0.889-1.483-1.848-1.483c-1.324,0-2.107,1.162-2.107,2.72c0,1.425,0.695,2.604,2.08,2.604
	c0.855,0,1.641-0.567,1.875-1.528c0.043-0.174,0.059-0.348,0.059-0.554V82.337z"/>
<line fill="none" x1="175.018" y1="86.509" x2="189.678" y2="85.666"/>
<path fill="#5E5F5F" d="M157.35,67.813c-2.578,0.925-7.666,2.447-13.679,2.447c-6.741,0-12.292-1.719-16.653-5.884
	c-3.833-3.697-6.211-9.647-6.211-16.583c0.065-13.285,9.185-22.998,24.119-22.998c5.154,0,9.187,1.122,11.102,2.047l-1.388,4.694
	c-2.38-1.06-5.352-1.918-9.846-1.918c-10.839,0-17.91,6.74-17.91,17.91c0,11.298,6.808,17.973,17.182,17.973
	c3.768,0,6.345-0.531,7.667-1.191V51.03h-9.055v-4.626h14.671V67.813z"/>
<path fill="#5E5F5F" d="M169.51,54.86c0.133,7.864,5.153,11.103,10.968,11.103c4.165,0,6.675-0.726,8.855-1.652l0.993,4.164
	c-2.049,0.927-5.55,1.982-10.64,1.982c-9.846,0-15.728-6.475-15.728-16.124c0-9.647,5.685-17.246,15.001-17.246
	c10.442,0,13.216,9.187,13.216,15.067c0,1.189-0.13,2.112-0.197,2.706H169.51z M186.558,50.699c0.068-3.701-1.52-9.448-8.061-9.448
	c-5.881,0-8.46,5.417-8.921,9.448H186.558z"/>
<path fill="#5E5F5F" d="M228.325,53.541c0,11.829-8.195,16.982-15.929,16.982c-8.655,0-15.33-6.343-15.33-16.453
	c0-10.707,7.004-16.983,15.861-16.983C222.112,37.087,228.325,43.762,228.325,53.541z M202.95,53.872
	c0,7.004,4.031,12.291,9.713,12.291c5.551,0,9.712-5.221,9.712-12.425c0-5.418-2.708-12.291-9.581-12.291
	S202.95,47.794,202.95,53.872z"/>
<path fill="#5E5F5F" d="M289.901,67.813c-2.579,0.925-7.664,2.447-13.68,2.447c-6.74,0-12.29-1.719-16.652-5.884
	c-3.832-3.697-6.21-9.647-6.21-16.583c0.063-13.285,9.183-22.998,24.118-22.998c5.155,0,9.186,1.122,11.104,2.047l-1.388,4.694
	c-2.379-1.06-5.352-1.918-9.848-1.918c-10.835,0-17.908,6.74-17.908,17.91c0,11.298,6.806,17.973,17.183,17.973
	c3.765,0,6.343-0.531,7.664-1.191V51.03h-9.053v-4.626h14.67V67.813z"/>
<path fill="#5E5F5F" d="M302.064,54.86c0.128,7.864,5.151,11.103,10.967,11.103c4.164,0,6.676-0.726,8.854-1.652l0.994,4.164
	c-2.049,0.927-5.553,1.982-10.641,1.982c-9.846,0-15.729-6.475-15.729-16.124c0-9.647,5.683-17.246,15.002-17.246
	c10.441,0,13.215,9.187,13.215,15.067c0,1.189-0.131,2.112-0.197,2.706H302.064z M319.111,50.699
	c0.066-3.701-1.521-9.448-8.063-9.448c-5.881,0-8.459,5.417-8.922,9.448H319.111z"/>
<path fill="#5E5F5F" d="M354.73,68.608c-1.52,0.793-4.891,1.849-9.186,1.849c-9.648,0-15.926-6.539-15.926-16.32
	c0-9.848,6.74-16.983,17.18-16.983c3.438,0,6.477,0.858,8.064,1.652l-1.322,4.494c-1.389-0.795-3.568-1.521-6.742-1.521
	c-7.334,0-11.299,5.418-11.299,12.093c0,7.4,4.756,11.961,11.102,11.961c3.305,0,5.484-0.862,7.139-1.589L354.73,68.608z"/>
<path fill="#5E5F5F" d="M367.287,52.484h0.133c0.791-1.126,1.914-2.512,2.84-3.635l9.383-11.036h7.004l-12.354,13.15l14.074,18.834
	h-7.07L370.26,54.467l-2.973,3.305v12.026h-5.75V22.88h5.75V52.484z"/>
<path fill="#5E5F5F" d="M421.477,53.541c0,11.829-8.197,16.982-15.93,16.982c-8.656,0-15.328-6.343-15.328-16.453
	c0-10.707,7.004-16.983,15.859-16.983C415.264,37.087,421.477,43.762,421.477,53.541z M396.1,53.872
	c0,7.004,4.029,12.291,9.713,12.291c5.553,0,9.715-5.221,9.715-12.425c0-5.418-2.711-12.291-9.582-12.291
	C399.072,41.447,396.1,47.794,396.1,53.872z"/>
<line fill="none" x1="226.791" y1="37.087" x2="277.731" y2="37.087"/>
</svg>
