<?xml version="1.0" encoding="utf-8"?>
<!-- Generator: Adobe Illustrator 16.0.0, SVG Export Plug-In . SVG Version: 6.00 Build 0)  -->
<!DOCTYPE svg PUBLIC "-//W3C//DTD SVG 1.1//EN" "http://www.w3.org/Graphics/SVG/1.1/DTD/svg11.dtd">
<svg version="1.1" id="Layer_1" xmlns="http://www.w3.org/2000/svg" xmlns:xlink="http://www.w3.org/1999/xlink" x="0px" y="0px"
	 width="56.266px" height="56.266px" viewBox="0 0 56.266 56.266" enable-background="new 0 0 56.266 56.266" xml:space="preserve">
<circle fill="#E3784A" cx="28.133" cy="28.169" r="28.132"/>
<g>
	<path fill="#FFFFFF" d="M18.881,29.357l7.783,5.659c0.014,0.01,0.029,0.017,0.043,0.026c0.041,0.028,0.086,0.052,0.129,0.078
		c0.086,0.053,0.174,0.102,0.264,0.144c0.053,0.024,0.105,0.045,0.16,0.065c0.094,0.035,0.188,0.064,0.285,0.089
		c0.051,0.013,0.1,0.026,0.152,0.036c0.15,0.027,0.305,0.046,0.457,0.046c0.154,0,0.307-0.019,0.457-0.046
		c0.053-0.01,0.104-0.023,0.154-0.037c0.096-0.023,0.189-0.052,0.283-0.088c0.055-0.021,0.109-0.042,0.162-0.066
		c0.088-0.04,0.17-0.087,0.252-0.137c0.049-0.029,0.098-0.056,0.143-0.088c0.014-0.009,0.027-0.015,0.039-0.023l7.781-5.659
		c1.133-0.822,1.383-2.407,0.559-3.539c-0.822-1.132-2.408-1.381-3.539-0.559l-3.758,2.732V15.73c0-1.399-1.133-2.534-2.533-2.534
		c-1.398,0-2.533,1.135-2.533,2.534V27.99l-3.76-2.733c-1.131-0.822-2.717-0.572-3.539,0.56
		C17.498,26.948,17.75,28.533,18.881,29.357z"/>
	<path fill="#FFFFFF" d="M37.821,37.656H18.485c-1.398,0-2.533,1.135-2.533,2.534s1.135,2.534,2.533,2.534h19.336
		c1.398,0,2.533-1.135,2.533-2.534S39.219,37.656,37.821,37.656z"/>
</g>
</svg>
