<?xml version="1.0" encoding="utf-8"?>
<!-- Generator: Adobe Illustrator 16.0.0, SVG Export Plug-In . SVG Version: 6.00 Build 0)  -->
<!DOCTYPE svg PUBLIC "-//W3C//DTD SVG 1.1//EN" "http://www.w3.org/Graphics/SVG/1.1/DTD/svg11.dtd">
<svg version="1.1" id="Layer_1" xmlns="http://www.w3.org/2000/svg" xmlns:xlink="http://www.w3.org/1999/xlink" x="0px" y="0px"
	 width="56.266px" height="56.266px" viewBox="0 0 56.266 56.266" enable-background="new 0 0 56.266 56.266" xml:space="preserve">
<circle fill="#E3784A" cx="28.133" cy="28.132" r="28.133"/>
<path fill="#FFFFFF" d="M43.202,38.558c2.322-3.141,3.551-6.867,3.551-10.783c0-10.008-8.143-18.15-18.15-18.15
	c-10.01,0-18.152,8.143-18.152,18.15c0,9.803,7.818,17.797,17.547,18.119v3.84l12.338-9.877L27.997,29.98v6.945
	c-4.781-0.314-8.578-4.293-8.578-9.15c0-5.063,4.119-9.182,9.184-9.182c5.063,0,9.182,4.119,9.182,9.18
	c0,1.98-0.619,3.865-1.793,5.451L43.202,38.558z"/>
</svg>
