<?xml version="1.0" encoding="utf-8"?>
<!-- Generator: Adobe Illustrator 16.0.0, SVG Export Plug-In . SVG Version: 6.00 Build 0)  -->
<!DOCTYPE svg PUBLIC "-//W3C//DTD SVG 1.1//EN" "http://www.w3.org/Graphics/SVG/1.1/DTD/svg11.dtd">
<svg version="1.1" id="Layer_1" xmlns="http://www.w3.org/2000/svg" xmlns:xlink="http://www.w3.org/1999/xlink" x="0px" y="0px"
	 width="32px" height="32px" viewBox="27.529 41.167 32 32" enable-background="new 27.529 41.167 32 32" xml:space="preserve">
<g>
	
		<radialGradient id="SVGID_1_" cx="-15.5107" cy="-1113.3765" r="11.5414" gradientTransform="matrix(1 0 0 -0.1566 59.04 -103.5699)" gradientUnits="userSpaceOnUse">
		<stop  offset="0" style="stop-color:#C6C4C3"/>
		<stop  offset="0.3355" style="stop-color:#C9C7C6;stop-opacity:0.6645"/>
		<stop  offset="0.5596" style="stop-color:#D1CFCF;stop-opacity:0.4404"/>
		<stop  offset="0.7513" style="stop-color:#DFDEDE;stop-opacity:0.2487"/>
		<stop  offset="0.9236" style="stop-color:#F4F3F3;stop-opacity:0.0764"/>
		<stop  offset="1" style="stop-color:#FFFFFF;stop-opacity:0"/>
	</radialGradient>
	<ellipse fill="url(#SVGID_1_)" cx="43.529" cy="70.785" rx="11.695" ry="2.152"/>
	
		<radialGradient id="SVGID_2_" cx="-15.5371" cy="37.7866" r="12.9629" gradientTransform="matrix(1 0 0 -1 59.04 94.1768)" gradientUnits="userSpaceOnUse">
		<stop  offset="0" style="stop-color:#F5B12D"/>
		<stop  offset="1" style="stop-color:#F27125"/>
	</radialGradient>
	<path fill="url(#SVGID_2_)" d="M54.052,52.992L54.052,52.992L54.052,52.992c0.018-0.193-8.662-0.013-8.639-0.135
		c0.063-0.338,0.195-0.57,0.373-0.734c0.318-0.206,0.692-0.27,1.012-0.299c0.226-0.035,0.884,0.082,1.164,0.156
		c0.194,0.053,0.434,0.1,0.824,0.05c0.509-0.067,0.926-0.49,1.047-1.023c0.167-0.727-0.289-1.448-1.015-1.612
		c-0.37-0.084-0.726,0.018-1.036,0.187c-0.365,0.2-1.047,0.965-2.104,1.174c-0.192,0.024-0.321-0.01-0.353-0.139
		c-0.146-0.582,0.916-1.968,1.064-2.131c0.175-0.189,0.356-0.393,0.453-0.764c0.184-0.722-0.25-1.456-0.972-1.64
		c-0.722-0.186-1.454,0.248-1.64,0.971c-0.096,0.367-0.02,0.619,0.01,0.857c0.03,0.224-0.021,0.915-0.068,1.127
		c-0.193,0.886-0.504,1.851-1.271,1.867c-0.509,0.011-1.021-0.924-1.195-1.263c-0.257-0.71,0.128-1.231-0.521-1.887
		c-0.523-0.528-1.488-0.212-1.957,0.468c-0.363,0.532-0.333,1.329,0.137,1.939c0.131,0.17,0.912,0.826,1.145,0.999
		c0.715,0.53,1.478,0.982,1.4,1.356c-0.168,0.796-1.047,0.785-1.926,0.775c-0.04-0.008-1.707-0.26-2.194,0.214
		c-0.622,0.605-0.438,1.61,0.163,2.051c0.871,0.641,1.771-0.183,1.939-0.278c0.785-0.669,1.975-0.71,2.25-0.713
		c2.443-0.031,5.607,0.201,5.775,0.736c0.479,1.52-0.164,2.836-2.134,3.852c-0.146,0.063-0.296,0.118-0.454,0.168
		c-0.578,0.144-1.171,0.221-1.768,0.227c-0.006,0-0.012,0-0.019,0c-0.097,0.002-0.192,0-0.29-0.002
		c-0.02-0.002-0.043-0.004-0.063-0.004c-0.081-0.002-0.162-0.007-0.243-0.013c-0.036-0.001-0.071-0.006-0.107-0.007
		c-0.067-0.008-0.133-0.014-0.199-0.021c-0.049-0.006-0.1-0.012-0.148-0.019c-0.053-0.006-0.105-0.013-0.16-0.023
		c-0.061-0.009-0.121-0.018-0.184-0.029c-0.041-0.007-0.08-0.015-0.122-0.023c-0.073-0.013-0.146-0.029-0.216-0.046
		c-0.03-0.007-0.061-0.013-0.091-0.02c-0.081-0.02-0.162-0.041-0.243-0.063c-0.021-0.006-0.042-0.011-0.063-0.018
		c-0.089-0.024-0.178-0.053-0.266-0.082c-0.013-0.003-0.025-0.007-0.039-0.012c-0.095-0.029-0.189-0.064-0.283-0.1
		c-0.006-0.001-0.013-0.005-0.019-0.006c-0.1-0.04-0.199-0.079-0.298-0.12c0,0-0.001-0.002-0.002-0.002
		c-0.027-0.007-0.067-0.025-0.115-0.048c-0.408-0.183-0.807-0.405-1.189-0.667c-0.38-0.265-0.729-0.559-1.047-0.877
		c-0.037-0.033-0.065-0.064-0.084-0.088c-0.001-0.002-0.001-0.002-0.002-0.003c-0.074-0.077-0.146-0.155-0.216-0.234
		c-0.005-0.006-0.011-0.012-0.015-0.017c-0.066-0.075-0.133-0.152-0.194-0.23c-0.009-0.009-0.018-0.02-0.025-0.03
		c-0.058-0.073-0.114-0.146-0.17-0.221c-0.015-0.017-0.026-0.034-0.038-0.051c-0.049-0.068-0.099-0.137-0.146-0.206
		c-0.017-0.025-0.034-0.051-0.051-0.076c-0.039-0.063-0.08-0.124-0.119-0.187c-0.023-0.034-0.045-0.069-0.064-0.106
		c-0.033-0.054-0.064-0.107-0.095-0.162c-0.027-0.045-0.053-0.093-0.077-0.141c-0.024-0.044-0.049-0.088-0.07-0.131
		c-0.03-0.061-0.06-0.121-0.089-0.182c-0.016-0.032-0.031-0.064-0.046-0.097c-0.035-0.073-0.068-0.148-0.1-0.222
		c-0.009-0.021-0.018-0.041-0.024-0.059c-0.038-0.091-0.073-0.181-0.106-0.271c-0.003-0.005-0.004-0.011-0.006-0.017
		c-0.828-2.244-0.591-4.846,0.871-6.965c1.975-2.86,5.558-3.949,8.695-2.891c0.643,0.224,1.27,0.535,1.857,0.94
		c0.59,0.408,1.103,0.883,1.54,1.405c0.522,0.637,0.93,1.346,1.219,2.097h3.109c-0.626-2.332-2.049-4.462-4.192-5.941
		c-4.783-3.3-11.332-2.11-14.65,2.655c-0.115,0.17-0.223,0.334-0.324,0.496c-0.269,0.436-0.504,0.885-0.701,1.344
		c-1.709,3.943-0.719,7.581,1.021,10.131c1.486,2.525,4.094,6.381,8.637,13.493h0.08c5.066-7.933,7.728-11.813,9.107-14.317l0,0
		c0.521-0.854,0.871-1.715,1.094-2.558c0-0.001,0.001-0.004,0.002-0.005c0.001-0.006,0.003-0.014,0.004-0.021
		c0.089-0.336,0.154-0.668,0.205-0.995c-0.002-0.001-0.003-0.001-0.004-0.003C54.015,53.32,54.034,53.155,54.052,52.992z"/>
	
		<radialGradient id="SVGID_3_" cx="-15.4297" cy="8.3711" r="12.041" gradientTransform="matrix(1 0 0 -0.9288 59.04 77.1476)" gradientUnits="userSpaceOnUse">
		<stop  offset="0" style="stop-color:#FFFFFF;stop-opacity:0.8"/>
		<stop  offset="1" style="stop-color:#FFFFFF;stop-opacity:0"/>
	</radialGradient>
	<path fill="url(#SVGID_3_)" d="M43.54,70.059c-1.598-2.493-2.953-4.579-4.064-6.293c-1.801-2.771-3.1-4.774-3.97-6.255
		l-0.013-0.021l-0.016-0.021c-1.148-1.684-2.8-5.146-0.951-9.412c0.185-0.432,0.404-0.852,0.65-1.248
		c0.091-0.146,0.192-0.299,0.307-0.469c1.828-2.625,4.84-4.195,8.052-4.195c1.991,0,3.915,0.599,5.56,1.735
		c1.638,1.13,2.889,2.731,3.592,4.581h-1.59c-0.299-0.656-0.681-1.27-1.138-1.825c-0.493-0.589-1.062-1.107-1.69-1.543
		c-0.635-0.436-1.318-0.783-2.039-1.032c-0.864-0.292-1.76-0.439-2.669-0.439c-2.751,0-5.324,1.35-6.883,3.611
		c-1.544,2.234-1.902,5.092-0.959,7.646c0.001,0.004,0.005,0.013,0.009,0.023c0.036,0.095,0.072,0.192,0.113,0.286
		c0.004,0.013,0.028,0.071,0.028,0.071c0.036,0.083,0.073,0.163,0.111,0.245c0.012,0.029,0.03,0.066,0.049,0.106
		c0.031,0.065,0.063,0.129,0.096,0.193c0.028,0.054,0.054,0.101,0.079,0.149c0.027,0.049,0.056,0.103,0.085,0.153
		c0.032,0.058,0.066,0.116,0.101,0.175c0.025,0.041,0.05,0.081,0.075,0.121c0.038,0.063,0.084,0.133,0.13,0.201
		c0,0,0.041,0.063,0.057,0.085c0.049,0.073,0.103,0.147,0.156,0.222c0,0,0.036,0.049,0.047,0.064c0.06,0.08,0.121,0.159,0.185,0.236
		c0.01,0.017,0.021,0.028,0.031,0.041c0.063,0.08,0.134,0.162,0.206,0.245l0.014,0.013c0.076,0.087,0.149,0.166,0.222,0.242
		c0.036,0.044,0.08,0.086,0.129,0.135c0.345,0.344,0.728,0.665,1.137,0.949c0.417,0.285,0.853,0.529,1.299,0.729
		c0.06,0.03,0.116,0.056,0.17,0.073c0.093,0.041,0.191,0.08,0.298,0.119l0.016,0.007c0.107,0.041,0.212,0.077,0.314,0.111
		c0.015,0.006,0.029,0.009,0.043,0.013c0.101,0.033,0.197,0.063,0.295,0.092c0.014,0.002,0.07,0.02,0.07,0.02
		c0.088,0.022,0.176,0.046,0.265,0.066l0.095,0.023c0.086,0.018,0.165,0.035,0.246,0.051c0.035,0.008,0.082,0.016,0.128,0.023
		c0.069,0.014,0.136,0.025,0.201,0.034c0.063,0.011,0.12,0.019,0.18,0.024c0.049,0.008,0.103,0.014,0.157,0.021
		c0.078,0.008,0.15,0.016,0.223,0.02c0.041,0.005,0.082,0.008,0.125,0.011c0.081,0.006,0.17,0.012,0.258,0.015l0.075,0.003
		c0.082,0.003,0.166,0.005,0.252,0.005h0.076c0.653-0.008,1.307-0.09,1.947-0.248l0.026-0.008l0.024-0.007
		c0.168-0.054,0.333-0.117,0.51-0.19l0.028-0.012l0.027-0.014c2.99-1.542,2.852-3.631,2.504-4.737
		c-0.119-0.379-0.397-1.264-6.045-1.264c-0.152,0-0.304,0.001-0.452,0.005c-0.124,0-0.298,0.008-0.5,0.029
		c0.458-0.177,0.869-0.52,1.007-1.182c0.164-0.783-0.558-1.298-1.32-1.844c-0.12-0.086-0.244-0.174-0.366-0.266
		c-0.229-0.17-0.88-0.723-1.003-0.86c-0.285-0.378-0.271-0.815-0.104-1.054c0.183-0.266,0.483-0.409,0.675-0.409
		c0.091,0,0.123,0.031,0.135,0.044c0.191,0.192,0.194,0.292,0.199,0.626c0.004,0.268,0.012,0.603,0.152,0.989l0.014,0.045
		l0.023,0.041c0.575,1.124,1.181,1.669,1.851,1.669h0.023c0.901-0.019,1.392-0.704,1.669-1.38c-0.028,0.184-0.027,0.363,0.014,0.527
		c0.095,0.374,0.394,0.633,0.785,0.694c-0.002,0.001-0.056,0.037-0.056,0.037l-0.047,0.042c-0.313,0.287-0.519,0.674-0.604,1.149
		l-0.063,0.344l0.223,0.272c0.26,0.313,0.26,0.313,2.504,0.313c0.499,0,1.06-0.002,1.639-0.004c0.615-0.002,1.253-0.005,1.86-0.005
		c1.18,0,1.913,0.008,2.363,0.021c-0.038,0.204-0.083,0.407-0.136,0.61l-0.004,0.014l-0.011,0.045
		c-0.218,0.821-0.557,1.609-1.005,2.345l-0.009,0.014l-0.008,0.015c-0.863,1.565-2.279,3.75-4.427,7.056
		C46.493,65.474,45.138,67.564,43.54,70.059z M38.664,55.053c-0.095,0-0.179-0.029-0.27-0.097c-0.134-0.1-0.23-0.287-0.243-0.479
		c-0.008-0.117,0.01-0.282,0.144-0.421c0.039-0.02,0.222-0.091,0.704-0.091c0.453,0,0.859,0.063,0.865,0.063l0.061,0.012
		l0.053-0.001c0.104,0.001,0.201,0.001,0.297,0.001c0.119,0,0.271,0,0.441-0.009c-0.429,0.126-0.878,0.326-1.266,0.646
		c-0.029,0.018-0.056,0.039-0.084,0.061C39.221,54.84,38.923,55.053,38.664,55.053z M48.47,51.304c-0.123,0-0.212-0.018-0.314-0.045
		c-0.234-0.063-0.818-0.18-1.211-0.188c0.383-0.21,0.689-0.449,0.93-0.637c0.099-0.08,0.223-0.175,0.269-0.199
		c0.149-0.083,0.287-0.126,0.405-0.126c0.037,0,0.071,0.004,0.105,0.011c0.157,0.036,0.29,0.133,0.375,0.267
		c0.086,0.137,0.113,0.298,0.078,0.454c-0.053,0.236-0.229,0.424-0.416,0.447C48.609,51.298,48.535,51.304,48.47,51.304z
		 M44.825,49.529c0.032-0.127,0.057-0.238,0.077-0.33c0.062-0.28,0.123-1.054,0.079-1.384c-0.005-0.051-0.014-0.101-0.021-0.153
		c-0.028-0.17-0.045-0.272-0.005-0.424c0.067-0.268,0.308-0.453,0.581-0.453c0.05,0,0.101,0.006,0.15,0.019
		c0.155,0.04,0.285,0.139,0.367,0.276c0.082,0.139,0.105,0.3,0.064,0.455c-0.047,0.188-0.123,0.277-0.278,0.447
		C45.83,47.992,45.193,48.722,44.825,49.529z"/>
</g>
</svg>
